<?xml version="1.0" encoding="UTF-8" standalone="no"?>
<!-- Created with Inkscape (http://www.inkscape.org/) -->

<svg
   width="360"
   height="50"
   viewBox="0 0 95.249998 13.229167"
   version="1.1"
   id="svg459"
   inkscape:version="1.2.1 (9c6d41e410, 2022-07-14)"
   sodipodi:docname="logo.svg"
   inkscape:export-filename="logo.jpg"
   inkscape:export-xdpi="96"
   inkscape:export-ydpi="96"
   xmlns:inkscape="http://www.inkscape.org/namespaces/inkscape"
   xmlns:sodipodi="http://sodipodi.sourceforge.net/DTD/sodipodi-0.dtd"
   xmlns="http://www.w3.org/2000/svg"
   xmlns:svg="http://www.w3.org/2000/svg">
  <sodipodi:namedview
     id="namedview461"
     pagecolor="#ffffff"
     bordercolor="#000000"
     borderopacity="0.25"
     inkscape:showpageshadow="2"
     inkscape:pageopacity="0.0"
     inkscape:pagecheckerboard="0"
     inkscape:deskcolor="#d1d1d1"
     inkscape:document-units="mm"
     showgrid="false"
     showguides="true"
     inkscape:zoom="1.4324916"
     inkscape:cx="235.95252"
     inkscape:cy="-80.628746"
     inkscape:window-width="1920"
     inkscape:window-height="991"
     inkscape:window-x="-9"
     inkscape:window-y="-9"
     inkscape:window-maximized="1"
     inkscape:current-layer="layer1">
    <sodipodi:guide
       position="-5.3547508,14.796411"
       orientation="1,0"
       id="guide770"
       inkscape:locked="false" />
    <sodipodi:guide
       position="-10.056483,12.706752"
       orientation="1,0"
       id="guide772"
       inkscape:locked="false" />
    <sodipodi:guide
       position="15.019423,16.951372"
       orientation="0,-1"
       id="guide774"
       inkscape:locked="false" />
  </sodipodi:namedview>
  <defs
     id="defs456">
    <rect
       x="15.357856"
       y="20.069925"
       width="3.664943"
       height="13.787167"
       id="rect369" />
  </defs>
  <g
     inkscape:label="Warstwa 1"
     inkscape:groupmode="layer"
     id="layer1">
    <g
       id="g1358"
       style="display:inline;fill:#142b5b;fill-opacity:1;stroke:#142b5b;stroke-opacity:1"
       transform="matrix(1.1416724,0,0,1.1578011,35.427653,-1.0599739)">
      <path
         d="M 2.4660792,9.7369598 C 2.3538015,9.6483168 2.2479415,9.5543178 2.14878,9.4572118 2.0471361,9.3571218 1.9517304,9.2535048 1.863513,9.1463748 1.813771,9.0861648 1.822522,8.9970838 1.882729,8.9473898 c 0.046413,-0.03811 0.1099379,-0.04167 0.159285,-0.014 0.5576499,0.303054 1.1931169,0.386605 1.7902864,0.263839 C 4.419637,9.0768158 4.969441,8.7570168 5.370603,8.2510418 l 0.003,-0.0034 C 5.8255198,7.6755267 6.0036288,6.9750221 5.9254008,6.3034062 5.8475878,5.6322849 5.5137718,4.9914541 4.9431618,4.5383623 l -0.0034,-0.00299 C 4.5279608,4.2102289 4.0505608,4.0269188 3.5645611,3.9788764 3.0617568,3.9289651 2.5508598,4.023968 2.0976888,4.2550831 2.0281674,4.290723 1.943099,4.2626943 1.9078941,4.1935798 1.8812393,4.1409141 1.8903746,4.079344 1.9265072,4.037148 2.6180302,3.2344568 3.56826,2.7733186 4.5546042,2.6795552 5.5363758,2.5862606 6.5549548,2.8572936 7.3891578,3.5180757 8.2477749,4.1979994 8.7494579,5.1613919 8.8670079,6.1690606 8.9834889,7.1784749 8.7164089,8.2308378 8.0365294,9.0894808 7.3726238,9.9279928 6.4384058,10.426293 5.4564668,10.558436 4.4709116,10.690292 3.4364202,10.454552 2.5790168,9.8233498 c -0.016638,-0.01208 -0.035594,-0.02664 -0.05642,-0.04194 l -4.109e-4,-4.89e-4 v 0 z m 0.078189,-0.301483 c 0.032094,0.02696 0.064512,0.05372 0.097074,0.07945 l 0.052817,0.04077 v 0 c 0.015392,0.01145 0.033006,0.02532 0.05278,0.03994 C 3.5427586,10.181635 4.5035548,10.400857 5.418729,10.277502 6.331086,10.154828 7.198499,9.6923918 7.8145184,8.9142948 8.4455219,8.1168798 8.6936859,7.1393714 8.5850559,6.2025803 8.4763419,5.266701 8.0103454,4.3719449 7.2129378,3.7409494 6.4378238,3.1274783 5.4917878,2.8756598 4.5802889,2.9622263 3.8706997,3.0293264 3.1816495,3.3016781 2.6086101,3.7664932 2.9292609,3.6887566 3.2616364,3.6651021 3.5904974,3.6975414 4.1291742,3.751094 4.6593538,3.9541558 5.1152728,4.3147487 l 4.07e-4,4.845e-4 c 0.633277,0.5016389 1.003612,1.2120993 1.090181,1.9559137 0.08616,0.7433241 -0.110953,1.5195869 -0.612097,2.1524289 l -4.85e-4,4.06e-4 c -0.444618,0.562659 -1.053391,0.917612 -1.7041643,1.050801 -0.4413315,0.09058 -0.902596,0.07909 -1.3448859,-0.03932 z"
         id="path304"
         style="fill:#142b5b;fill-opacity:1;stroke:#142b5b;stroke-width:0.0645452;stroke-opacity:1" />
      <text
         xml:space="preserve"
         transform="scale(0.26458333)"
         id="text367"
         style="font-weight:bold;font-size:12px;font-family:Verdana;-inkscape-font-specification:'Verdana, Bold';white-space:pre;shape-inside:url(#rect369);display:inline;fill:#142b5b;fill-opacity:1;stroke:#142b5b;stroke-opacity:1" />
      <text
         xml:space="preserve"
         style="font-style:normal;font-variant:normal;font-weight:normal;font-stretch:normal;font-size:4.58611px;font-family:'Lucida Calligraphy';-inkscape-font-specification:'Lucida Calligraphy';fill:#142b5b;fill-opacity:1;stroke:#142b5b;stroke-width:0.264583;stroke-opacity:1"
         x="9.1422567"
         y="7.9994745"
         id="text3160"><tspan
           sodipodi:role="line"
           id="tspan3158"
           style="font-style:normal;font-variant:normal;font-weight:normal;font-stretch:normal;font-size:4.58611px;font-family:'PT Sans';-inkscape-font-specification:'PT Sans';fill:#142b5b;fill-opacity:1;stroke:#142b5b;stroke-width:0.264583;stroke-opacity:1"
           x="9.1422567"
           y="7.9994745">rowse</tspan></text>
      <circle
         id="path373"
         style="fill:#142b5b;fill-opacity:1;stroke:#142b5b;stroke-width:0.264583;stroke-opacity:1"
         cx="7.2726212"
         cy="5.8642721"
         r="0.0015376286" />
      <path
         style="fill:#142b5b;fill-opacity:1;stroke:#142b5b;stroke-width:0.0436303;stroke-opacity:1"
         d="m 17.713891,38.953612 c -2.467425,-0.16183 -4.867955,-0.992935 -6.937214,-2.401783 -0.613956,-0.41801 -0.676269,-0.47658 -0.676269,-0.63565 0,-0.147223 -0.06984,-0.146977 0.785345,-0.0028 0.356377,0.0601 0.710048,0.07734 1.592505,0.07763 1.254057,4.36e-4 1.732977,-0.05631 2.792337,-0.33076 3.891715,-1.00822 6.960371,-4.119324 7.918506,-8.02804 0.249004,-1.015814 0.284065,-1.34721 0.283083,-2.67573 -7.99e-4,-1.080593 -0.01248,-1.286297 -0.1012,-1.78156 -0.709088,-3.958484 -3.26593,-7.084546 -6.966002,-8.516815 -0.633552,-0.245243 -1.652767,-0.511507 -2.334219,-0.609801 -1.036539,-0.149513 -2.431162,-0.132406 -3.435884,0.04215 l -0.31632,0.05495 v -0.145846 c 0,-0.139767 0.02773,-0.164181 0.665362,-0.585765 0.747396,-0.494158 1.953602,-1.10903 2.762193,-1.408049 4.151279,-1.535151 8.734576,-1.038949 12.431321,1.345853 4.584129,2.957261 7.012297,8.329155 6.218939,13.758308 -0.351532,2.405617 -1.379524,4.741179 -2.95054,6.703522 -0.49425,0.617364 -1.477148,1.599651 -2.089653,2.088355 -2.733934,2.181347 -6.197915,3.277701 -9.64229,3.051796 z"
         id="path1001"
         transform="scale(0.26458333)" />
      <path
         style="fill:#142b5b;fill-opacity:1;stroke:#142b5b;stroke-width:0.264583;stroke-opacity:1"
         id="path1011"
         d="m 2.6442933,9.3554554 c -0.031839,0.0094 -0.027692,0.00621 -0.057083,0.022982 -0.011567,0.0066 -0.026704,0.015759 -0.035195,0.026976 -0.015154,0.020021 -0.014737,0.025863 -0.022269,0.049614 -0.00799,0.047999 -0.017401,0.077236 0.00164,0.1294485 0.00912,0.024992 0.025906,0.047209 0.044434,0.066301 0.013473,0.013883 0.030492,0.026456 0.049427,0.03042 0.082512,0.017277 0.086684,0.011322 0.1403852,-0.00873 0.00838,-0.00525 0.01756,-0.00942 0.025157,-0.015766 0.021828,-0.018222 0.041204,-0.042123 0.051432,-0.068969 0.010753,-0.028224 0.015137,-0.069144 0.010774,-0.099203 -0.00188,-0.013002 -0.00804,-0.025014 -0.012054,-0.037521 -0.011287,-0.01628 -0.020452,-0.032061 -0.037773,-0.043554 -0.022344,-0.014825 -0.043964,-0.043106 -0.070439,-0.038852 -0.060506,0.00972 -0.1137117,0.046637 -0.1669451,0.076995 -0.024141,0.013766 -0.00574,0.035349 -0.01586,0.022304 -2.805e-4,-0.00127 5.58e-5,-0.00474 -8.44e-4,-0.0038 -0.00856,0.0089 -0.01387,0.039169 -0.014208,0.044201 -0.00241,0.035899 0.00352,0.071358 0.023368,0.1024244 0.012134,0.018989 0.030316,0.033348 0.045474,0.050022 0.045762,0.00834 0.090831,0.022622 0.1372847,0.025027 0.013708,7.143e-4 0.05305,-0.019502 0.066483,-0.030417 0.00796,-0.00647 0.023037,-0.022093 0.029,-0.033245 9.525e-4,-0.00177 8.467e-4,-0.00394 0.00127,-0.00592 0.012959,-0.015722 -0.2093847,-0.1990011 -0.2223445,-0.183279 v 0 c -0.00207,3.439e-4 -0.00418,0.00159 -0.00621,0.00106 -0.00108,-2.91e-4 -0.00189,-0.00206 -0.00138,-0.00304 0.00308,-0.00603 0.010904,-0.014983 0.01762,-0.01801 0.058075,-0.026183 0.057587,-0.00373 0.1512775,0.015856 0.011946,0.015068 0.026395,0.028454 0.035838,0.045203 0.014706,0.02608 0.018103,0.052685 0.015674,0.081576 -5.557e-4,0.00657 -0.0031,0.012843 -0.00524,0.019082 -2.117e-4,6.085e-4 -4.498e-4,-0.00122 -6.879e-4,-0.00183 0.00159,-0.00511 0.00316,-0.010224 0.00474,-0.015335 5.292e-4,-0.00474 0.00608,-0.015716 0.00156,-0.014224 -0.00638,0.00209 -0.00454,0.014124 -0.010517,0.017179 -0.053255,0.027234 -0.1050891,0.063564 -0.1642764,0.072207 -0.022265,0.00325 -0.064794,-0.035702 -0.083248,-0.056777 -0.00238,-0.00272 -0.00409,-0.00596 -0.00614,-0.00894 -0.00169,-0.00796 -0.00476,-0.015748 -0.00508,-0.023879 -4.577e-4,-0.011422 8.07e-4,-0.022921 0.00276,-0.034187 0.00226,-0.013018 0.00488,-0.026146 0.00982,-0.038396 0.00751,-0.018614 0.020924,-0.034678 0.035483,-0.048095 0.00378,-0.00348 0.00835,-0.006 0.012518,-0.009 0.041064,-0.016989 0.042565,-0.020484 0.1139566,-0.00307 0.031569,0.0077 0.066578,0.067102 0.073515,0.089129 0.012001,0.038109 0.00628,0.068727 0.00209,0.1049952 0.00138,0.00251 0.00206,0.00559 0.00415,0.00757 0.00626,0.00595 0.018396,-0.011017 0.014658,-0.016155 -0.00164,-0.00225 -0.00525,-0.00188 -0.00798,-0.00235 -0.00439,-7.938e-4 -0.00886,-0.00101 -0.013293,-0.00151 0.01671,-0.011502 -0.14601,-0.2480068 -0.1627333,-0.2365009 z" />
      <path
         style="fill:#142b5b;fill-opacity:1;stroke:#142b5b;stroke-width:0.264583;stroke-opacity:1"
         id="path1013"
         d="m 2.9787281,9.3497312 c -0.00295,-0.00807 -0.00481,-0.016624 -0.00885,-0.024204 -0.011816,-0.02217 -0.022595,-0.032479 -0.044068,-0.045851 -0.00958,-0.00597 -0.019677,-0.011396 -0.030398,-0.014922 -0.023889,-0.00786 -0.043014,-0.00628 -0.067633,-0.00665 -0.040971,0.00453 -0.1400644,0.015272 -0.1551117,0.019442 -0.013531,0.00375 -0.022752,0.016669 -0.032611,0.026669 -0.044804,0.045445 -0.060397,0.064658 -0.072695,0.1318663 -0.0032,0.017465 0.00221,0.035444 0.00332,0.053166 0.00924,0.026567 0.00848,0.032009 0.023554,0.052554 0.00247,0.00337 0.018343,0.01865 0.021117,0.021164 0.01784,0.016174 0.017681,0.015727 0.033583,0.028431 0.015682,0.012248 0.1888921,-0.2095267 0.1732103,-0.2217745 v 0 c 0.00993,0.010541 0.00687,0.00755 0.021257,0.020966 0.00151,0.0014 0.00304,0.00281 0.00468,0.00407 8.996e-4,6.879e-4 0.00228,8.467e-4 0.00293,0.00177 0.00616,0.00881 0.00686,0.01869 0.00935,0.029105 -2.91e-4,0.049931 0.00443,0.052249 -0.026352,0.1066808 -0.00901,0.015936 -0.024207,0.027499 -0.035472,0.041929 -0.00483,0.00618 -0.00524,0.017439 -0.012719,0.019793 -0.028459,0.00895 -0.05943,0.00623 -0.088679,0.01211 -0.00217,4.234e-4 0.00302,0.00321 0.00454,0.00481 0.011634,0.00406 0.018799,0.00757 0.031912,0.00723 0.022376,-5.821e-4 0.044632,-0.010215 0.061396,-0.024799 0.00507,-0.00441 0.00891,-0.010057 0.013359,-0.015087 0.016155,0.012049 0.1865421,-0.2164215 0.1703869,-0.2284698 z" />
      <path
         style="fill:#142b5b;fill-opacity:1;stroke:#142b5b;stroke-width:0.264583;stroke-opacity:1"
         id="path1015"
         d="m 2.773086,9.6613299 c 7.937e-4,0.00753 5.556e-4,0.01524 0.00235,0.022601 0.00217,0.00892 0.00608,0.01732 0.00942,0.025866 0.00349,0.00892 0.00658,0.01805 0.011076,0.026503 0.010641,0.020018 0.024519,0.037781 0.040941,0.053389 0.0096,0.00912 0.020405,0.016878 0.030606,0.025315 0.034525,0.019942 0.029883,0.02023 0.06749,0.030718 0.010631,0.00297 0.02158,0.00465 0.032336,0.00712 0.00856,0.00196 0.01691,0.00496 0.025604,0.00619 0.013105,0.00185 0.030101,9.63e-5 0.043246,-7.673e-4 -0.00225,-0.00297 0.027771,-8.731e-4 0.026434,-0.010226 -0.00114,-0.00797 -0.00922,-0.013229 -0.013301,-0.020177 -0.010081,-0.017182 -0.017708,-0.035863 -0.02915,-0.052171 -0.00593,-0.00846 0.00759,0.019272 0.012465,0.028387 0.00688,0.012875 0.015147,0.024961 0.022722,0.037439 0.00559,0.00722 0.011631,0.014105 0.016772,0.021646 0.00251,0.00369 0.00341,0.00837 0.00611,0.011925 0.00373,0.00491 0.00842,0.00904 0.012965,0.013208 0.011483,0.010528 0.020518,0.017007 0.034694,0.024212 0.0058,0.00295 0.012065,0.0049 0.0181,0.00736 0.007,7.938e-4 0.027558,0.00323 0.034589,0.00369 0.00403,2.617e-4 0.00839,0.00177 0.012107,1.939e-4 0.00151,-6.35e-4 -6.086e-4,-0.00341 -0.00172,-0.0046 -7.938e-4,-8.467e-4 -0.00299,-0.00191 -0.00336,-8.202e-4 -7.143e-4,0.00206 9.79e-4,0.00423 0.00146,0.00634 0.00787,0.00921 0.010417,0.014351 0.020757,0.019749 0.00427,0.00222 0.00914,0.00312 0.013462,0.00526 0.00399,0.00198 0.00752,0.00479 0.011369,0.00704 0.013824,0.00809 0.017865,0.00995 0.031967,0.01724 0.0102,0.00196 0.021556,0.00273 0.028749,0.011726 0.00339,0.00424 0.00409,0.010081 0.00665,0.01487 0.00955,0.01788 0.0122,0.01949 0.025305,0.03563 0.00691,0.0056 0.02656,0.02185 0.035048,0.02766 0.00727,0.005 0.014954,0.0093 0.022344,0.01409 0.0067,0.0043 0.013317,0.0088 0.019918,0.01329 0.037573,0.02552 0.013959,0.01115 0.054426,0.03379 0.019166,0.01223 0.041186,0.01878 0.061001,0.02968 0.010271,0.0056 0.019201,0.01356 0.029548,0.01907 0.019127,0.01018 0.046184,0.02002 0.067413,0.02527 0.010409,0.0026 0.021093,0.0039 0.031637,0.0058 0.034552,0.0028 0.031563,0.0041 0.065539,9.26e-4 0.00958,-9e-4 0.019002,-0.0033 0.028604,-0.0039 0.0102,-6.88e-4 0.020444,-1.06e-4 0.030666,-8.5e-5 0.030747,6.5e-5 0.019939,-2.64e-4 0.047132,0.0016 0.00454,5.7e-5 0.0091,6.09e-4 0.013623,1.71e-4 0.00442,-4.24e-4 0.00863,-0.0022 0.013044,-0.0027 0.03127,-0.0034 0.062627,-0.006 0.093941,-0.009 C 3.959849,10.185448 3.869693,9.8932452 3.849028,9.89962 v 0 C 3.874378,9.89695 3.899924,9.89576 3.925073,9.89161 3.932863,9.89031 3.891991,9.88594 3.901533,9.8889 3.889825,9.89131 3.898133,9.89001 3.894953,9.88392 3.892523,9.87926 3.889493,9.87488 3.886053,9.8709 3.871644,9.8542401 3.867704,9.8540411 3.848024,9.8417671 3.820445,9.8294451 3.81391,9.8249181 3.784101,9.8181421 3.749786,9.8103421 3.756217,9.8154921 3.720838,9.8120821 3.704018,9.8104721 3.691061,9.8059821 3.67476,9.8014331 3.66757,9.7995831 3.660409,9.7975731 3.653181,9.7958731 3.646021,9.7941831 3.638626,9.7934131 3.631588,9.7912531 3.623498,9.7887631 3.615837,9.7850731 3.607942,9.7820331 3.601572,9.7795731 3.59516,9.7772631 3.58881,9.7747731 3.557436,9.7624751 3.574184,9.7669331 3.546776,9.7615151 3.540456,9.7612616 3.534134,9.760589 3.527808,9.7607478 c -0.025585,6.879e-4 -0.00689,0.00198 -0.029408,0.00402 -0.00511,4.498e-4 -0.00754,-0.020794 -0.014139,-0.01914 -0.00172,-0.00308 -0.00497,-0.00909 -0.00701,-0.011517 -0.00335,-0.00399 -0.00746,-0.0073 -0.010784,-0.011311 -0.00362,-0.00437 -0.00606,-0.00969 -0.00999,-0.013774 C 3.442234,9.6942118 3.440613,9.6953208 3.423395,9.6877908 3.415705,9.6838908 3.407901,9.6802208 3.400334,9.6760878 3.382549,9.6663878 3.369359,9.6580538 3.352589,9.6469108 3.33302,9.6339088 3.349749,9.6445608 3.332838,9.6322368 c -0.00401,-0.00292 -0.00818,-0.0056 -0.012274,-0.0084 -0.00491,-0.00143 -0.00968,-0.00348 -0.014724,-0.00429 -0.00409,-6.614e-4 -0.00828,-4.89e-5 -0.012412,-8.62e-5 -0.019674,-1.771e-4 -0.00883,-8.996e-4 -0.026667,0.00164 -0.00468,6.614e-4 -0.011385,-0.00198 -0.014034,0.0019 -0.00278,0.0041 0.00191,0.00973 0.00284,0.014597 0.00508,0.010681 0.010435,0.021238 0.015245,0.032045 0.00369,0.00828 0.015251,0.032761 0.010234,0.025207 -0.011697,-0.017616 -0.019529,-0.037546 -0.030452,-0.055653 -0.00497,-0.00824 -0.012912,-0.014597 -0.01714,-0.023246 -0.00337,-0.00688 0.0041,-0.016118 -2.91e-5,-0.022974 -0.00527,-0.015354 -0.0045,-0.017227 -0.01647,-0.031008 -0.0048,-0.00552 -0.01102,-0.00966 -0.01605,-0.014973 -0.00504,-0.00533 -0.00903,-0.011586 -0.014094,-0.016888 -0.019619,-0.020537 -0.01823,-0.017306 -0.043309,-0.03186 -0.028544,-0.01089 -0.054714,-0.021566 -0.085454,-0.024961 -0.00872,-9.525e-4 -0.017571,-0.0018 -0.026307,-9.525e-4 -0.012676,0.00122 -0.021061,0.00714 -0.031722,0.013002 -0.012446,-0.016047 -0.2393715,0.159975 -0.2269249,0.176021 z" />
      <path
         style="fill:#142b5b;fill-opacity:1;stroke:#142b5b;stroke-width:0.264583;stroke-opacity:1"
         id="path1019"
         d="m 3.531812,10.052289 c 0.00997,0.03155 0.020418,0.07132 0.040221,0.09785 0.043061,0.0577 0.1165757,0.08504 0.185542,0.09294 0.02363,0.0027 0.047568,2.58e-4 0.071352,3.96e-4 0.079166,-0.01394 0.051977,-0.0057 0.1223513,-0.03029 0.014912,-0.0052 0.030036,-0.0099 0.044489,-0.01631 0.011705,-0.0052 0.021463,-0.01476 0.033784,-0.01819 0.121239,-0.03375 0.076457,0.0082 0.1167255,-0.03484 0.00999,-0.02767 0.00323,-0.0072 -0.082039,0.0028 -0.00172,2.01e-4 0.00101,0.0034 0.00193,0.0048 0.00209,0.0034 0.00395,0.0072 0.00706,0.0097 0.0038,0.0031 0.027268,0.0138 0.031035,0.01557 0.018733,0.0056 0.036718,0.01375 0.055451,0.01929 0.00709,0.0021 0.014356,0.0035 0.021574,0.0051 0.022222,0.0049 0.027467,0.0055 0.050235,0.0095 0.018889,0.0048 0.036724,0.01312 0.055546,0.01812 0.00931,0.0025 0.01892,0.0036 0.028332,0.0056 0.015801,0.0034 0.039205,0.0096 0.054827,0.01212 0.00937,0.0015 0.018878,0.002 0.028315,0.0029 0.00853,0.0015 0.017066,0.0029 0.025596,0.0044 0.00913,0.0022 0.018134,0.0049 0.02738,0.0066 0.038084,0.0066 0.017756,-0.0023 0.05827,0.01057 0.082345,0.02614 -0.010237,0.0031 0.073806,0.02238 0.011335,8.99e-4 0.022659,0.002 0.034005,0.0027 0.027472,0.0018 0.036913,0.0025 0.064014,6.09e-4 0.0084,-5.82e-4 0.016727,-0.002 0.025109,-0.0029 0.020137,-0.002 0.01778,-0.0016 0.035837,-0.0019 0.025207,0.0046 0.01611,0.0024 0.043333,0.0099 0.00909,0.0025 0.017828,0.0067 0.027198,0.0078 0.00917,10e-4 0.018399,-0.0016 0.027624,-0.0017 0.0076,-1.27e-4 0.015179,6.62e-4 0.022773,8.73e-4 0.007,2.01e-4 0.01401,2.48e-4 0.021013,3.71e-4 0.00431,4.23e-4 0.00869,3.96e-4 0.012927,0.0013 0.013944,0.003 0.027086,0.0096 0.040401,0.01419 0.01188,0.0041 0.047214,0.01491 0.0591,0.017 0.010141,0.0018 0.020516,0.0018 0.030772,0.0027 0.069177,-0.0035 0.099396,0.0105 0.1471377,-0.01725 0.017918,-0.01042 0.029536,-0.02663 0.044698,-0.0402 0.00551,-0.0049 0.011483,-0.0093 0.017224,-0.01396 0.00305,-0.0031 0.00571,-0.0066 0.00916,-0.0092 4.763e-4,-3.7e-4 0.00132,10e-4 0.00101,0.0015 -0.00332,0.0054 -0.0085,0.0096 -0.011319,0.01522 -0.00736,0.01474 0.00395,0.01922 0.014322,0.02531 -0.023672,2.91e-4 -0.047347,4.23e-4 -0.071017,8.73e-4 -0.00587,1.12e-4 0.011745,4.5e-4 0.017605,1.5e-4 0.034043,-0.0018 0.068208,-0.0024 0.1020696,-0.0064 0.00564,-6.61e-4 0.010237,-0.0049 0.015388,-0.0073 0.01342,-0.0062 0.00779,-0.0047 0.019624,-0.0062 0.029829,0.01814 0.00432,5.82e-4 -0.068243,0.01192 -0.00209,3.17e-4 0.00332,0.0027 0.00525,0.0036 0.01003,0.0047 0.017997,0.0071 0.029443,0.0059 0.00444,-4.5e-4 0.00851,-0.0027 0.012771,-0.004 0.014978,-0.0025 0.00757,0.0015 0.013756,-0.0069 9.79e-4,-0.0013 0.00177,-0.0031 0.00333,-0.0036 0.0014,-4.5e-4 0.00289,6.61e-4 0.00426,0.0012 0.01524,0.0061 0.01333,0.0058 0.027773,0.01444 0.019963,0.0069 0.040757,0.0118 0.061786,0.01406 0.00545,5.82e-4 0.01098,8.2e-5 0.016436,6.09e-4 0.022757,0.0022 0.010385,0.0033 0.019241,0.0024 0.00501,0.0052 0.00539,0.0067 0.014822,0.0085 0.007,0.0013 0.020145,-8.99e-4 0.026844,-0.0021 0.00454,-7.93e-4 0.00893,-0.0026 0.013539,-0.0028 0.031908,-0.0013 0.06386,-0.0012 0.09579,-0.0018 0.0422,-0.0211 0.051975,-0.02118 0.085317,-0.0623 0.010403,-0.01283 0.016584,-0.02858 0.024254,-0.0432 0.0032,-0.0061 0.00573,-0.01254 0.00833,-0.01893 0.00119,-0.0029 0.00135,-0.0063 0.00301,-0.009 0.00127,-0.0021 0.00363,-0.0032 0.00545,-0.0048 -0.0056,0.0082 0.00629,-0.0067 0.00381,-0.0064 -0.00201,2.36e-4 -0.0088,0.0089 -0.00891,0.009 -0.00375,0.0042 -0.00793,0.0086 -0.011753,0.01264 -8.12e-5,-6.9e-5 -0.0022,-0.0015 -0.00193,-0.0023 2.911e-4,-8.2e-4 0.00106,-0.0014 0.00159,-0.0021 0.00417,-0.0057 0.00838,-0.01142 0.01247,-0.01719 4.763e-4,-6.61e-4 -0.00201,0.0026 -0.00161,0.0019 0.00293,-0.0052 0.00615,-0.01019 0.00922,-0.01528 -0.00196,0.0032 -0.0072,0.01323 -0.0059,0.0097 0.029102,-0.07951 0.1079765,-0.05217 -0.07905,-0.2086009 -0.030847,-0.025802 -0.079952,0.00887 -0.1200378,0.012099 -0.070148,0.00565 0.021627,-0.00923 -0.058586,0.00562 -0.029937,0.00903 -0.035406,0.00818 -0.061559,0.026003 -0.01909,0.01301 -0.033475,0.0314 -0.051412,0.04574 -5.821e-4,6.4e-5 -0.00206,6.88e-4 -0.00175,1.93e-4 0.00119,-0.0019 0.00349,-0.0028 0.00464,-0.0047 0.00106,-0.0017 -1.712e-4,-0.0056 0.00185,-0.0059 0.027795,-0.004 0.056226,-0.0024 0.083999,-0.0066 0.00386,-5.82e-4 -0.00729,-0.0028 -0.010856,-0.0044 -0.00789,-0.0035 -0.015669,-0.0073 -0.023503,-0.01101 -0.010549,-0.0031 -0.020854,-0.0072 -0.031646,-0.0094 -0.041272,-0.0081 -0.1587638,-0.0022 -0.1631149,-0.002 -0.00923,5.02e-4 -0.018021,0.0042 -0.026836,0.007 -0.014248,0.0045 -0.026991,0.0106 -0.040538,0.01667 -0.00517,0.0017 -0.010046,0.0052 -0.015502,0.0053 -0.00627,1.27e-4 -0.012134,-0.0032 -0.018259,-0.0046 -0.00657,-0.0015 -0.026533,-0.0035 -0.019812,-0.0039 0.024614,-0.0015 0.04932,1.02e-4 0.073972,6.62e-4 0.00568,1.29e-4 -0.011372,4.9e-5 -0.017021,6.35e-4 -0.00482,5.02e-4 -0.00953,0.0017 -0.014301,0.0026 -0.016732,0.0012 -0.03346,0.0025 -0.049051,0.0093 -0.00465,0.002 -0.00894,0.0048 -0.013322,0.0074 -0.013118,0.0077 -0.01283,0.0031 -0.00933,0.01248 -0.00175,-8.47e-4 -0.00367,-0.0014 -0.00523,-0.0025 -0.00385,-0.0028 -0.00736,-0.0061 -0.010867,-0.0093 -0.0043,-0.004 -0.00678,-0.01124 -0.012547,-0.01236 -0.034782,-0.0067 -0.070633,-0.006 -0.1057627,-0.01059 -0.03296,-0.0086 -0.016566,-0.0058 -0.049126,-0.0087 -0.027668,0.0019 -0.014732,-3.97e-4 -0.039534,0.0065 -0.00515,0.0014 -0.010398,0.0026 -0.015452,0.0043 -0.00424,0.0015 -0.016701,0.0041 -0.012367,0.0053 0.023461,0.0063 0.04806,0.0072 0.072089,0.01079 -0.021439,-0.0056 -0.1002294,0.297606 -0.078792,0.303177 v 0 c 0.03108,0.0036 0.062257,0.0065 0.093239,0.01086 0.0064,9e-4 0.01242,0.0036 0.018735,0.005 0.00684,0.0015 0.013785,0.0023 0.02068,0.0035 0.029283,0.0049 0.014788,0.0037 0.044584,0.0035 0.00696,-0.0013 0.014137,-0.0017 0.020884,-0.0039 0.053702,-0.01707 -0.036901,-0.01253 -0.054234,-0.01939 -0.00531,-0.0021 0.00879,-0.0074 0.012335,-0.01188 0.010477,-0.01326 -0.00106,-0.0058 0.00688,-0.0104 0.00293,0.002 0.00708,0.003 0.0088,0.0061 0.00269,0.0049 -0.00814,0.01299 0.00324,0.01645 0.010779,0.0125 0.029227,0.0142 0.043912,0.01835 0.00781,0.0019 0.01551,0.0043 0.023424,0.0056 0.0076,0.0013 0.015317,0.0021 0.023029,0.0024 0.038182,0.0011 0.076393,0.0024 0.1145807,0.0015 0.00733,-1.61e-4 0.014348,-0.003 0.021524,-0.0045 0.00657,-0.0019 0.012898,-0.0053 0.019725,-0.0056 0.00626,-2.91e-4 0.012263,0.0026 0.018394,0.0039 0.00758,0.0025 0.03492,0.01161 0.041913,0.01359 0.00795,0.0022 0.032229,0.0048 0.024053,0.006 -0.02444,0.0036 -0.049393,0.0017 -0.074092,0.0013 -0.00839,-1.3e-4 0.016812,-6.88e-4 0.025077,-0.0021 0.0085,-0.0015 0.016685,-0.0044 0.025027,-0.0066 0.00911,-0.0022 0.018021,-0.0056 0.027338,-0.0068 0.010634,-0.0013 0.021431,-1.21e-4 0.032135,-5.56e-4 0.040795,-0.0016 0.081697,-0.0018 0.1223537,-0.0056 0.012644,-0.0012 0.024807,-0.0055 0.037012,-0.009 0.036134,-0.01038 0.039839,-0.01315 0.073097,-0.02744 0.036633,-0.01925 0.027332,-0.01326 0.060908,-0.03506 0.00722,-0.0047 0.014438,-0.0094 0.021439,-0.0144 0.011554,-0.0083 0.020217,-0.01386 0.026727,-0.02679 0.00249,-0.005 0.00313,-0.01064 0.00469,-0.01597 -3.175e-4,-0.0018 -0.00262,-0.02327 -0.00802,-0.02342 -0.036636,-10e-4 -0.082638,0.03253 -0.1096722,0.0078 -0.34319,-0.3139441 -0.088822,-0.112134 -0.077137,-0.20645 6.086e-4,-0.0049 -0.0055,0.0083 -0.00825,0.01242 0.00235,-0.004 0.00542,-0.0077 0.00706,-0.01208 7.673e-4,-0.0021 -0.00551,0.0069 -0.00439,0.005 0.00282,-0.0048 0.00673,-0.0088 0.00951,-0.01364 4.498e-4,-7.67e-4 -0.00153,8.47e-4 -0.0023,0.0013 -0.00734,0.0041 -0.00251,0.0015 -0.011292,0.006 -0.013933,0.01408 -0.026957,0.0282 -0.038213,0.0446 -0.00627,0.0091 -0.013105,0.02047 -0.016534,0.0312 -0.00138,0.0043 -0.00169,0.009 -0.00251,0.01346 1.023e-4,0.004 4.497e-4,0.0081 3.175e-4,0.01212 -5.69e-5,0.0017 -0.00254,0.0052 -8.732e-4,0.005 0.0023,-3.44e-4 0.00308,-0.0035 0.00433,-0.0055 0.00676,-0.01066 0.011459,-0.02278 0.019682,-0.03236 0.027643,-0.03219 0.035441,-0.03335 0.068131,-0.05126 0.027447,-5.02e-4 0.05497,5.83e-4 0.08234,-0.0015 0.00201,-1.56e-4 -0.00243,-0.0033 -0.00404,-0.0045 -0.00251,-0.0019 -0.00525,-0.0035 -0.00817,-0.0047 -0.00394,-0.0016 -0.00803,-0.0031 -0.012258,-0.0035 -0.012039,-0.0011 -0.02418,0.0037 -0.036219,0.0019 -0.00579,-5.56e-4 -0.011554,-0.0019 -0.017365,-0.0016 -0.00106,4.3e-5 -0.00108,0.002 -0.00209,0.0024 -6.614e-4,2.65e-4 -0.00265,-0.0012 -0.00206,-7.14e-4 7.143e-4,5.29e-4 0.00177,5.03e-4 0.00249,0.0011 3.704e-4,2.91e-4 -9.261e-4,-1.42e-4 -0.00138,-2.14e-4 -0.00209,-5.55e-4 -0.00419,-0.0011 -0.00629,-0.0016 -0.00354,-8.7e-5 -0.00712,2.26e-4 -0.010634,-2.6e-4 -0.00288,-3.97e-4 -0.00569,-0.0013 -0.00841,-0.0024 -0.021654,-0.0084 -0.015047,-0.0069 -0.036135,-0.01885 -0.00711,-0.004 -0.014203,-0.0081 -0.021614,-0.011552 -0.00568,-0.00265 -0.011724,-0.00442 -0.017584,-0.00664 -0.00598,-0.00274 -0.011631,-0.00634 -0.017933,-0.00821 -0.014806,-0.00439 -0.025646,-0.00204 -0.040928,-0.00119 -0.00877,5.027e-4 -0.01755,7.673e-4 -0.026313,0.00135 -0.1068565,0.00714 -0.071089,-0.00553 -0.1177293,0.013327 -0.00958,9.261e-4 -0.0108,0.00265 -0.018963,-0.00177 -0.00251,-0.00135 -0.00972,-0.00473 -0.00688,-0.00515 0.025027,-0.00369 0.050507,-0.00305 0.07573,-0.00501 0.00407,-3.175e-4 -0.00816,6.08e-5 -0.012237,9.12e-5 -0.033784,8.15e-5 -0.067567,1.63e-4 -0.1013507,2.442e-4 -0.00624,0.00212 -0.012597,0.00388 -0.018714,0.00632 -0.016558,0.0066 -0.026051,0.012109 -0.041107,0.022458 -0.00852,0.0059 -0.016592,0.01235 -0.024905,0.0185 -0.00249,0.0018 -0.00438,0.0054 -0.00746,0.0054 -0.00185,4e-5 0.00103,-0.0035 0.00153,-0.0053 0.00392,-0.0053 0.011703,-0.01249 0.00823,-0.02076 -0.00122,-0.0029 -0.020045,-0.016806 -0.021415,-0.017688 -0.00451,-0.0029 -0.019389,-0.00674 -0.014115,-0.00774 0.025874,-0.00489 0.052579,-0.003 0.078868,-0.00449 -0.00596,5.821e-4 -0.011996,6.35e-4 -0.017873,0.00177 -0.00597,0.00116 -0.011636,0.00353 -0.017518,0.00507 -0.00764,0.00198 -0.025278,0.0061 -0.033176,0.00598 -0.014129,-2.069e-4 -0.030537,-0.00521 -0.043942,-0.00856 -9.525e-4,-3.44e-4 -0.03119,-0.010943 -0.031458,-0.011075 -0.00512,-0.00254 -0.00889,-0.00763 -0.014317,-0.00944 -0.00674,-0.00225 -0.014155,-0.00127 -0.021169,-0.00238 -0.021024,-0.00335 -0.029179,-0.00635 -0.050314,-0.012277 -0.010589,-0.00338 -0.02118,-0.00676 -0.031769,-0.010136 -0.00942,-0.00296 -0.018862,-0.00589 -0.028275,-0.00889 -0.021609,-0.0069 -0.030879,-0.010745 -0.05287,-0.015301 -0.00909,-0.00188 -0.018309,-0.00302 -0.02747,-0.00451 -0.00946,-0.00153 -0.018936,-0.00301 -0.028405,-0.00452 -0.00877,1.211e-4 -0.017568,-2.53e-4 -0.026321,3.704e-4 -0.00853,6.085e-4 -0.016899,0.00354 -0.025448,0.00328 -0.022664,-6.879e-4 -0.032298,-0.0092 -0.054119,-0.015507 -0.021145,-0.00611 -0.043507,-0.00739 -0.06431,-0.01496 -0.0102,-0.00274 -0.020257,-0.00609 -0.030601,-0.00822 -0.00819,-0.00169 -0.058643,-0.00813 -0.065702,-0.00896 -0.00987,-0.00116 -0.019714,-0.00278 -0.029643,-0.00309 -0.01792,-5.557e-4 -0.035826,0.00378 -0.053782,7.937e-4 -0.017269,-0.00312 -0.031212,-0.00575 -0.04865,-0.00842 -0.00917,-0.0014 -0.018299,-0.00319 -0.027544,-0.00388 -0.00844,-6.086e-4 -0.01692,1.487e-4 -0.025379,-2.44e-5 -0.00791,-1.619e-4 -0.044478,-0.00188 -0.052101,-0.00222 -0.015854,0.00241 -0.024283,0.00316 -0.039395,0.00735 -0.00682,0.00191 -0.013364,0.00473 -0.020214,0.0065 -0.00555,0.00143 -0.011189,0.00275 -0.01691,0.00311 -0.083704,0.00524 -0.066076,0.00606 -0.1070722,0.00324 7.673e-4,-0.044058 -0.00447,0.010829 0.079187,-0.032008 0.00579,-0.00297 -0.0031,-0.012774 -0.00611,-0.018539 C 4.110852,9.8085412 4.105592,9.8022572 4.100627,9.7958652 4.074835,9.7626272 4.080736,9.7709282 4.045747,9.7422832 4.029449,9.7348332 4.013925,9.7253892 3.996853,9.7199492 3.960921,9.7084952 3.905134,9.7021082 3.8682695,9.7057282 3.8034525,9.7120882 3.7473139,9.7407132 3.6943814,9.7765332 3.6748764,9.7650372 3.5123144,10.040898 3.5318206,10.052392 Z" />
      <path
         style="fill:#142b5b;fill-opacity:1;stroke:#142b5b;stroke-width:0.264583;stroke-opacity:1"
         id="path1021"
         d="m 5.7483223,10.240057 c 0.035045,0.02055 0.074346,0.03321 0.1149102,0.0372 0.021609,0.0021 0.043412,0.0015 0.065125,0.0014 0.067903,-2.63e-4 0.064613,-0.0016 0.1304213,-0.0089 0.053911,-0.0062 0.107261,-0.01666 0.1591863,-0.03249 0.080813,-0.02465 0.00607,-0.0047 0.084747,-0.03011 0.011033,-0.0036 0.022402,-0.006 0.033602,-0.009 0.030049,-0.0032 0.060917,-0.0044 0.090122,-0.01296 0.00939,-0.0028 0.018214,-0.0072 0.027374,-0.0106 0.03978,-0.01495 0.014465,-0.0032 0.056827,-0.02605 0.030013,-0.01781 0.057151,-0.0378 0.081242,-0.06342 0.019275,-0.01338 0.024556,-0.03756 0.03965,-0.05403 0.00476,-0.0052 0.011507,-0.0081 0.017259,-0.01222 0.017333,-0.01484 0.032188,-0.033399 0.043139,-0.05348 0.00411,-0.00753 0.00755,-0.015415 0.010761,-0.023363 0.00528,-0.013081 0.00839,-0.012409 0.0033,-0.01315 8.8e-6,4.763e-4 -1.127e-4,9.79e-4 2.6e-5,0.00143 7.672e-4,0.00249 0.00448,-0.00269 0.00684,-0.00379 0.00325,-0.00151 0.00682,-0.00228 0.010049,-0.00385 0.013147,-0.00637 0.025776,-0.013766 0.038714,-0.02055 0.024029,-0.018399 0.044607,-0.040456 0.063129,-0.064268 0.011187,-0.01438 0.020937,-0.029702 0.031931,-0.04422 0.00183,-0.00238 0.00945,-0.012692 0.014555,-0.01075 0.0033,0.00124 0.00265,0.0074 0.00588,0.00881 0.0067,0.00291 0.014377,0.0034 0.021677,0.00318 0.010443,-3.175e-4 0.020653,-0.00319 0.030978,-0.00478 0.012592,-0.00424 0.025876,-0.00682 0.037776,-0.012732 0.053901,-0.026798 0.099015,-0.084632 0.1203632,-0.1399067 0.00691,-0.017894 0.00981,-0.037087 0.014719,-0.05563 0.015642,-0.012091 -0.00246,-0.04899 0.00857,-0.065594 0.00164,-0.00246 0.00423,-0.00413 0.00623,-0.00631 0.00282,-0.00307 0.00563,-0.00615 0.0082,-0.00943 0.00416,-0.0053 0.00798,-0.010866 0.011972,-0.016298 0.01964,-0.020947 0.032151,-0.045676 0.042248,-0.072185 0.011126,-0.019534 -0.265143,-0.1768618 -0.2762676,-0.1573265 v 0 c -0.00662,0.00654 -0.013708,0.01265 -0.019865,0.019632 -0.025434,0.028851 -0.043435,0.062285 -0.055917,0.098592 -0.00764,0.025739 -0.014393,0.045953 -0.01914,0.072542 -0.00217,0.012086 -0.00328,0.024342 -0.0045,0.036561 -0.00101,0.010237 -0.00159,0.020516 -0.00217,0.030786 -3.439e-4,0.00578 -0.00156,0.011652 -6.35e-4,0.01737 2.257e-4,0.00138 0.00201,-0.00196 0.003,-0.00292 0.00251,-0.00761 0.0048,-0.01529 0.00754,-0.022818 0.00233,-0.00641 0.00773,-0.012152 0.00765,-0.018971 -6e-5,-0.00526 -0.013166,-0.00545 -0.021317,-0.00396 -0.026149,0.00479 -0.026793,0.00799 -0.052301,0.021577 -0.010205,0.00658 -0.020905,0.012459 -0.030618,0.019751 -0.018169,0.013642 -0.041331,0.03689 -0.05771,0.05235 -0.033944,0.032039 0.00569,-0.00573 -0.03483,0.031351 -0.00539,0.00493 -0.010538,0.010118 -0.015806,0.015179 -0.02118,0.020905 -0.043135,0.041082 -0.063218,0.063067 -0.00366,0.00409 -0.00745,0.00808 -0.010993,0.012277 -0.00206,0.00243 -0.00359,0.00532 -0.00581,0.00762 -0.017634,0.018264 -0.042593,0.027864 -0.05866,0.048014 -0.00646,0.00655 -0.012628,0.013409 -0.019391,0.019648 -0.00897,0.00827 -0.020106,0.013994 -0.02893,0.022418 -0.021042,0.02009 -0.037817,0.04445 -0.050689,0.070394 -0.00314,0.00895 -0.00604,0.017989 -0.0094,0.02686 -7.938e-4,0.00209 -0.00373,0.00385 -0.00304,0.00598 5.556e-4,0.00167 0.00249,-0.00251 0.00377,-0.00371 0.00431,-0.00403 0.00942,-0.00732 0.013012,-0.012002 0.00235,-0.00307 -0.012544,-0.011078 -0.010276,-0.00536 -0.011644,-0.010142 -0.00257,-0.00442 -0.026152,-0.00691 -0.00858,-8.996e-4 -0.017047,-0.00299 -0.02567,-0.00334 -0.038558,-0.00156 -0.077041,0.00566 -0.1146384,0.013041 -0.01243,0.00161 -0.024781,0.00399 -0.037288,0.00481 -0.016113,0.00106 -0.062426,-0.0014 -0.076159,-0.00169 -0.056075,-0.00119 -0.1122973,-2.646e-4 -0.1679511,0.00752 -0.071932,0.011097 -0.043157,0.00489 -0.1098045,0.021635 -0.036827,0.00925 -0.076399,0.017415 -0.1100767,0.035851 -0.00681,0.00373 -0.012507,0.00919 -0.018759,0.01379 -0.019685,0.00505 0.051794,0.2834452 0.071479,0.2783902 z" />
      <path
         style="fill:#142b5b;fill-opacity:1;stroke:#142b5b;stroke-width:0.264583;stroke-opacity:1"
         id="path1023"
         d="m 7.0482986,9.5704442 c 0.023217,0.00132 0.038486,0.00359 0.062469,-0.0022 0.014671,-0.00353 0.028653,-0.00955 0.042597,-0.015319 0.027616,-0.011422 0.055734,-0.02571 0.080549,-0.0425 0.011139,-0.00754 0.021286,-0.016449 0.031929,-0.024675 0.021579,-0.022368 0.026599,-0.024881 0.041905,-0.049651 0.0029,-0.0047 0.012271,-0.029704 0.019047,-0.032385 0.00225,-8.995e-4 0.00468,-0.00127 0.00702,-0.00193 0.00363,-2.138e-4 0.00725,-4.234e-4 0.010882,-6.35e-4 0.00225,0.00116 0.0042,0.00349 0.00674,0.00351 0.025567,2.291e-4 0.059946,-0.02382 0.080587,-0.03772 0.00602,-8.202e-4 0.010205,-0.00715 0.016153,-0.00813 8.996e-4,-1.492e-4 -7.937e-4,0.00289 1.085e-4,0.00275 0.013068,-0.00196 0.042825,-0.017698 0.053933,-0.022929 0.028043,-0.0136 0.057474,-0.024395 0.084956,-0.039143 0.067483,-0.036218 -0.023254,0.010099 0.047896,-0.025773 0.00913,-0.00515 0.018304,-0.010239 0.027398,-0.015457 0.021034,-0.012065 0.027259,-0.014809 0.045362,-0.029897 0.020291,-0.016912 0.037447,-0.037416 0.055432,-0.056651 0.015285,-0.01937 0.031653,-0.037793 0.046894,-0.057195 0.00536,-0.00682 0.016058,-0.022445 0.024503,-0.028555 0.00319,-0.0023 0.00712,-0.00336 0.010681,-0.00504 0.019402,-0.016666 0.038144,-0.034686 0.054974,-0.05399 0.00743,-0.00852 0.014036,-0.017732 0.021283,-0.026413 0.01859,-0.022265 0.01773,-0.020659 0.036638,-0.039794 0.00635,-0.00674 0.01257,-0.013607 0.019055,-0.020219 0.00648,-0.00661 0.013586,-0.012602 0.01983,-0.019436 0.031799,-0.034803 0.053997,-0.069653 0.077033,-0.1104027 0.020796,-0.041133 0.040238,-0.084233 0.04909,-0.1298088 6.085e-4,-0.00317 0.00784,-0.06843 0.00855,-0.074704 0.00489,-0.03894 0.013772,-0.077238 0.020174,-0.1159227 0.00156,-0.00943 0.00262,-0.018949 0.00392,-0.028424 0.00196,-0.011578 0.00393,-0.023156 0.0059,-0.034734 0.00351,-0.02231 0.0092,-0.056135 0.011311,-0.078811 0.00122,-0.013174 0.00119,-0.026442 0.00228,-0.039628 0.00106,-0.012819 0.00324,-0.025535 0.00421,-0.038361 0.00724,-0.095589 -0.00446,0.019611 0.00413,-0.06064 0.00122,-0.015401 0.00334,-0.030296 0.01515,-0.041388 0.00279,-0.00262 0.00636,-0.00426 0.00955,-0.00639 0.00529,-0.00455 0.010914,-0.00873 0.015878,-0.013639 0.00675,-0.00667 0.012795,-0.014004 0.01919,-0.021008 0.013203,-0.0151 0.01234,-0.015624 0.025733,-0.026555 0.00298,-0.00243 0.00617,-0.0046 0.00926,-0.00689 1.693e-4,-1.259e-4 7.144e-4,-3.175e-4 5.292e-4,-3.704e-4 -0.00275,-5.821e-4 -0.00562,-1.032e-4 -0.00843,-9.24e-5 -0.00161,1.739e-4 -0.00648,6.88e-4 -0.00486,5.292e-4 0.012266,-0.00127 0.00722,-4.233e-4 0.026159,-0.00773 0.030186,-0.01165 0.052278,-0.035129 0.073751,-0.058249 0.019857,-0.026522 0.00841,-0.015491 0.022593,-0.026437 0.02531,-0.019531 -0.052892,0.065468 -0.081323,0.050847 -0.335724,-0.1726464 -0.07632,-0.1901579 -0.1945002,-0.1796185 -0.00946,0.00397 -0.019891,0.00613 -0.028373,0.011896 C 8.0289181,7.9219939 7.9847831,7.9963401 7.961437,8.057272 7.955467,8.072851 7.951113,8.089002 7.945954,8.104868 7.932185,8.159052 7.930952,8.210944 7.944474,8.2650902 c 7.409e-4,0.00297 9.525e-4,0.010903 0.00303,0.00865 0.0029,-0.00316 5.557e-4,-0.00856 8.203e-4,-0.012848 -8.203e-4,-0.00177 -9.79e-4,-0.00661 -0.00243,-0.0053 -0.00441,0.00398 -0.00605,0.010226 -0.00883,0.01547 -0.01025,0.019291 -0.014642,0.039828 -0.017095,0.061354 -2.448e-4,0.00556 -0.00119,0.011139 -7.409e-4,0.016687 3.44e-4,0.00411 -8.731e-4,0.010917 0.00311,0.01198 0.088312,0.023519 0.1778307,0.04246 0.2675041,0.06009 0.00459,8.996e-4 0.00908,-0.00259 0.013134,-0.00492 0.021466,-0.01234 0.023508,-0.018121 0.040931,-0.037555 0.01043,-0.015314 0.029039,-0.041724 0.037915,-0.0583 0.00793,-0.014811 0.021058,-0.046724 0.028573,-0.062824 0.00966,-0.020693 0.014166,-0.028554 0.024596,-0.048078 0.0058,-0.00675 0.011652,-0.013462 0.017396,-0.020262 0.013764,-0.016288 0.018868,-0.022103 0.030843,-0.039922 0.00995,-0.014798 0.018381,-0.030523 0.028436,-0.045264 0.00505,-0.00745 0.020929,-0.030985 0.025683,-0.037327 0.00402,-0.00537 0.00904,-0.00998 0.01275,-0.015571 0.00616,-0.00929 0.011007,-0.019402 0.016767,-0.028951 0.016661,-0.027625 0.00278,2.646e-4 0.019182,-0.036306 0.00326,-0.00639 0.014883,-0.029897 0.019783,-0.036936 0.023125,-0.033221 -0.00444,0.017322 0.023844,-0.033217 0.013642,-0.024376 0.014536,-0.030906 0.024643,-0.058905 0.0087,-0.02875 0.013443,-0.058273 0.017748,-0.087899 0.00111,-0.00765 0.00275,-0.015229 0.00351,-0.022924 7.673e-4,-0.00771 4.762e-4,-0.015499 0.00103,-0.02323 6.614e-4,-0.00908 0.00177,-0.018121 0.00265,-0.027182 0.00291,-0.01969 5.556e-4,-0.039502 6.879e-4,-0.059262 1.27e-4,-0.018079 0.00177,-0.021918 -2.159e-4,-0.039661 -6.085e-4,-0.00551 -0.00204,-0.010896 -0.00306,-0.016341 0.00159,-0.01011 -0.00965,-0.022439 -0.0073,-0.032397 3.44e-4,-0.00146 0.00148,0.00262 0.00188,0.00407 0.00402,0.014854 -0.00124,0.010022 0.00625,0.015176 0.039237,-0.043477 0.052559,-0.1084765 0.06512,-0.1640911 0.00635,-0.040792 0.00622,-0.029059 0.0063,-0.066456 3.81e-5,-0.019013 8.202e-4,-0.035714 -0.00505,-0.054019 -0.00206,-0.00639 -0.00597,-0.01202 -0.0091,-0.017957 -0.017629,-0.033475 -0.035443,-0.066852 -0.053165,-0.1002776 -0.079624,0.018026 -0.1606733,0.030628 -0.2388724,0.054077 -0.01183,0.00355 -0.018563,0.01638 -0.026795,0.025585 -0.020677,0.023119 -0.035035,0.046059 -0.051349,0.072307 -0.00746,0.011996 -0.01506,0.023924 -0.021746,0.036367 -0.00699,0.013012 -0.012824,0.026614 -0.019238,0.039921 -0.01352,0.029034 -0.023836,0.059372 -0.03562,0.089097 -0.00257,0.00647 -0.00485,0.013115 -0.00823,0.019206 -0.00499,0.00898 -0.01437,0.019119 -0.021114,0.026926 -0.042146,0.039204 -0.075897,0.085744 -0.1077526,0.1333841 -0.00556,0.00767 -0.01089,0.015528 -0.016695,0.023019 -0.00844,0.01089 -0.017981,0.020921 -0.026019,0.032107 -0.022069,0.030709 -0.041098,0.068177 -0.055455,0.1032063 -0.00456,0.011118 -0.00816,0.022603 -0.012237,0.033905 -0.00797,0.030528 -0.017955,0.060387 -0.026289,0.090809 -0.00496,0.018121 -0.011734,0.040303 -0.013771,0.059277 -9.261e-4,0.00865 -3.44e-4,0.017407 -5.027e-4,0.026112 0.011496,0.061602 0.021826,0.1399609 0.099799,0.1639102 0.062027,0.019053 0.1267851,-0.028241 0.1889024,-0.046996 0.013761,-0.00415 0.025228,-0.013809 0.037464,-0.021349 0.032482,-0.020018 0.046968,-0.031714 0.078002,-0.054573 0.015632,-0.014999 0.088073,-0.084167 0.097833,-0.095205 0.017373,-0.019645 0.033507,-0.04048 0.047988,-0.062345 0.024289,-0.036672 0.046866,-0.084531 0.061546,-0.12616 0.00687,-0.019487 0.011406,-0.03972 0.017111,-0.059579 0.00913,-0.042239 0.00941,-0.085346 0.00908,-0.1283028 -2.262e-4,-0.029634 -0.00201,-0.038273 0.0072,-0.065944 0.00413,-0.010218 0.00979,-0.025789 0.016108,-0.034901 0.00359,-0.00518 0.00912,-0.0088 0.012734,-0.013957 0.019558,-0.027937 0.032967,-0.06086 0.045936,-0.092096 0.00326,-0.01162 0.00707,-0.023101 0.00979,-0.03486 0.00616,-0.026688 0.00812,-0.054277 0.01428,-0.080977 0.014052,-0.060939 0.00254,0.00417 0.012827,-0.06038 0.00151,-0.015661 0.00396,-0.035835 0.00339,-0.0516 -2.911e-4,-0.00775 -0.00201,-0.015377 -0.00273,-0.023095 -2.645e-4,-0.00287 -0.00241,-0.037814 -0.00299,-0.041959 -7.673e-4,-0.0055 -0.0023,-0.010864 -0.00345,-0.016293 -0.00228,-0.00934 -0.0041,-0.018656 -0.00742,-0.027675 -0.00119,-0.020111 -0.2856159,-0.00315 -0.2844165,0.01696 v 0 c -0.00103,0.011245 -0.00122,0.022434 -0.00191,0.033698 -3.44e-4,0.00324 -9.261e-4,0.00646 -0.00103,0.00972 -1.834e-4,0.00624 0.00135,0.011639 -2.588e-4,0.017785 -8.202e-4,0.00315 -0.00282,0.0059 -0.00371,0.00903 -0.00249,0.00877 -0.00233,0.018169 -0.0054,0.02682 -6.35e-4,0.00262 -0.0054,0.022521 -0.00583,0.02354 -0.00243,0.00582 -0.00599,0.011094 -0.00909,0.016579 -0.013118,0.02318 -0.028586,0.044841 -0.040224,0.068865 -0.010755,0.025278 -0.017359,0.039641 -0.026453,0.066201 -0.015751,0.046012 -0.025292,0.093841 -0.02894,0.1423215 -9.79e-4,0.00923 -0.00206,0.018449 -0.00294,0.027688 -5.027e-4,0.00528 5.027e-4,0.01084 -0.00116,0.015878 -9.26e-4,0.0028 -0.00412,0.00424 -0.00619,0.00633 -0.016293,0.01646 -0.034554,0.030652 -0.050135,0.047885 -0.034236,0.038589 -0.06868,0.077594 -0.097568,0.1204767 -0.057273,0.08502 -0.00872,0.019881 -0.057746,0.1042585 -0.00896,0.015423 -0.019963,0.029567 -0.029943,0.044351 -0.017232,0.029692 -0.033957,0.053041 -0.042728,0.086277 -0.00214,0.00811 -0.00998,0.025011 -0.00159,0.025125 0.055798,7.408e-4 0.114659,-0.045207 0.1658302,-0.022947 0.050816,0.022106 0.048342,0.1037876 0.092088,0.1384142 0.00233,-0.00371 0.0051,-0.00718 0.00696,-0.011144 0.00335,-0.00713 0.00831,-0.02458 0.011523,-0.031977 0.00893,-0.020569 0.019733,-0.040816 0.033189,-0.05876 0.017955,-0.027484 0.034807,-0.055454 0.048884,-0.085178 0.00452,-0.00954 0.00839,-0.019373 0.012586,-0.029058 0.0028,-0.00878 0.00464,-0.017923 0.0084,-0.026339 0.0038,-0.00853 0.00943,-0.016132 0.014142,-0.024199 0.00511,-0.00798 0.010528,-0.01578 0.01534,-0.023945 0.00212,-0.00357 0.00971,-0.020055 0.013671,-0.025162 0.013909,-0.017936 0.033542,-0.030085 0.048561,-0.046973 0.057927,-0.059195 -0.011917,0.012882 0.045778,-0.048957 0.0186,-0.019934 0.034867,-0.034561 0.052428,-0.055741 0.028676,-0.034587 0.0321,-0.042888 0.056337,-0.081393 0.00757,-0.015449 0.016031,-0.030492 0.022712,-0.046346 0.01728,-0.041013 0.032672,-0.087089 0.028912,-0.132392 -6.615e-4,-0.00808 0.00243,-0.023828 -0.00566,-0.023638 -0.076142,0.0018 -0.1510839,0.019426 -0.2266259,0.029141 -0.015978,-0.032169 -0.028794,-0.06611 -0.047931,-0.096506 -0.00193,-0.00306 -0.0071,0.00268 -0.00935,0.00552 -0.00673,0.00851 -0.00971,0.02654 -0.011946,0.035872 -0.00793,0.033056 -0.00532,0.017291 -0.00842,0.049265 -0.00204,0.016026 -0.00455,0.03199 -0.00638,0.04804 -6.88e-4,0.00602 -0.00101,0.012078 -0.00151,0.018116 2.149e-4,0.00383 9.525e-4,0.00767 6.35e-4,0.011499 -0.00114,0.014523 -0.00546,0.024014 -0.010144,0.038205 -0.00262,0.00978 -0.00604,0.019386 -0.00783,0.029352 -0.0022,0.01215 -0.00335,0.024485 -0.00409,0.036807 -6.615e-4,0.011179 0.00198,0.022519 3.175e-4,0.033593 -4.234e-4,0.00277 -0.00185,0.00529 -0.00251,0.00801 -8.202e-4,0.00333 -0.00132,0.00674 -0.00198,0.010115 -0.00272,0.01329 -0.00279,0.010766 -0.00312,0.025085 -1.03e-4,0.00452 4.233e-4,0.00906 1.28e-4,0.013571 -5.821e-4,0.00898 -0.00353,0.021169 -0.00463,0.029879 -7.673e-4,0.00616 -0.00108,0.012374 -0.00164,0.018563 -0.00119,0.020698 7.673e-4,0.00254 -0.00521,0.026395 -0.00529,0.02109 -0.00855,0.042938 -0.017558,0.062939 -0.00713,0.018018 -0.00289,0.00777 -0.013031,0.030611 -0.010197,0.025027 -0.018362,0.050877 -0.027536,0.076285 -0.00761,0.01089 -0.010996,0.021762 -0.019534,0.030303 -0.00479,0.00479 -0.013764,0.00416 -0.017579,0.010186 -0.02218,0.017817 -0.045809,0.034516 -0.066193,0.054441 -0.02748,0.026861 -0.050185,0.058008 -0.06838,0.091807 -0.044323,0.063338 -0.089171,0.1287076 -0.1078685,0.2048037 -0.00451,0.031617 -0.00682,0.032606 -0.00351,0.062864 6.879e-4,0.00623 -0.00214,0.016505 0.00382,0.018407 0.086813,0.027643 0.1767674,0.044235 0.2649405,0.067173 0.00191,5.027e-4 0.0031,0.00269 0.00503,0.00306 0.00143,2.645e-4 0.0028,-8.732e-4 0.0042,-0.00132 0.011795,-0.016092 0.020148,-0.035339 0.024215,-0.054902 0.00103,-0.00495 0.00106,-0.010067 0.00204,-0.015031 0.00198,-0.010221 0.00454,-0.020325 0.00681,-0.030487 0.00185,-0.011885 0.00359,-0.023794 0.00559,-0.035655 9.261e-4,-0.0055 5.821e-4,-0.011501 0.0032,-0.016438 9.26e-4,-0.00175 0.00395,-1.569e-4 0.00584,-6.879e-4 0.014221,-0.00394 0.022302,-0.018164 0.030238,-0.029099 0.043076,-0.062626 0.086686,-0.1257282 0.109511,-0.1991479 0.017068,-0.1074153 0.029157,-0.1247736 -0.1566669,-0.2366516 -0.028315,-0.017047 -0.057673,0.03245 -0.085069,0.05094 -0.00393,0.00265 -0.018701,0.021214 -0.018849,0.028303 -6.14e-5,0.00292 0.0041,-0.00416 0.00615,-0.00624 0.022339,-0.023074 -0.0023,0.00135 0.041203,-0.03424 6.615e-4,-5.292e-4 2.646e-4,-0.0018 8.996e-4,-0.00235 0.00188,-0.00172 0.00774,-0.00214 0.00634,-0.00428 -0.00541,-0.00821 -0.029965,0.021736 -0.029393,0.00249 -0.02449,0.0038 -0.035242,0.00424 -0.059511,0.013832 -0.048706,0.019259 -0.088928,0.053148 -0.1263732,0.088869 -0.00793,0.00873 -0.016319,0.017074 -0.023789,0.026204 -0.051476,0.062899 -0.084049,0.133251 -0.1024331,0.2122072 -0.00284,0.01733 -0.010197,0.05997 -0.011877,0.078456 -0.00108,0.011848 -5.556e-4,0.023799 -0.00151,0.035656 -8.731e-4,0.010768 -0.00282,0.021423 -0.00399,0.032165 -0.00169,0.015629 -0.00467,0.050954 -0.00607,0.067154 -0.00164,0.011705 -0.00313,0.023434 -0.00493,0.035116 -0.00209,0.013547 -0.00523,0.026942 -0.00671,0.040569 -0.00503,0.046425 -0.00279,0.093601 0.00453,0.1396127 6.25e-5,3.704e-4 0.00408,0.016383 0.00214,0.020656 -0.00613,0.013441 -0.016788,0.024561 -0.025305,0.036414 -0.036986,0.040381 -0.075116,0.079824 -0.1074957,0.1241679 -0.00667,0.0092 -0.013523,0.018267 -0.020005,0.027597 -0.020291,0.029208 -0.00694,0.012801 -0.02495,0.035908 -0.056224,0.072125 0.031069,-0.040339 -0.029423,0.034972 -0.00458,0.00571 -0.0086,0.011843 -0.012909,0.017764 -0.021796,0.030685 -0.012615,0.017531 -0.031084,0.044268 -0.00514,0.00743 -0.012478,0.019531 -0.020238,0.02454 -0.00183,0.00119 -0.00416,0.00132 -0.00624,0.00198 -0.00809,0.00251 -0.016367,0.00446 -0.024318,0.00738 -0.03503,0.012856 -0.065681,0.033464 -0.093752,0.057818 -0.00652,0.00532 -0.012875,0.010835 -0.019553,0.015946 -0.041299,0.031614 0.00582,-0.00662 -0.032699,0.024035 -0.00949,0.00755 -0.012893,0.011385 -0.022093,0.017552 -0.00274,0.00185 -0.00565,0.00342 -0.00848,0.00513 -0.01611,-0.00101 -0.033959,0.00801 -0.047954,0.013073 -0.031704,0.011472 -0.00808,0.00188 -0.041858,0.016489 -0.037583,0.012229 -0.073462,0.029528 -0.1018588,0.057848 -0.00573,0.00458 -0.020426,0.016894 -0.027107,0.01973 -0.00358,0.00151 -0.00771,0.00106 -0.011586,0.00143 -0.00587,5.557e-4 -0.011806,5.821e-4 -0.01765,0.0014 -0.024037,0.00336 -0.027249,0.00552 -0.051886,0.013078 -0.011523,0.00521 -0.023342,0.00981 -0.034572,0.015626 -0.040091,0.020757 -0.086369,0.051924 -0.1125289,0.089579 -0.00424,0.0061 -0.00688,0.013158 -0.010319,0.019735 -0.016155,0.012049 0.1542317,0.2405179 0.1703869,0.2284698 z" />
      <path
         style="fill:#142b5b;fill-opacity:1;stroke:#142b5b;stroke-width:0.264583;stroke-opacity:1"
         id="path1025"
         d="m 8.5835648,7.2697958 c 0.00416,-0.00108 0.00888,-8.731e-4 0.012467,-0.00323 0.00704,-0.00465 0.012663,-0.011179 0.01855,-0.017224 0.036436,-0.03743 0.050264,-0.072679 0.070614,-0.119457 0.00284,-0.010131 0.0057,-0.020254 0.00853,-0.03039 0.00751,-0.026974 0.00785,-0.025757 0.012361,-0.054554 0.00584,-0.012002 0.00198,-0.024844 0.00359,-0.037197 8.731e-4,-0.00671 0.00251,-0.013301 0.00375,-0.019952 0.00172,-0.00655 0.00351,-0.013073 0.00513,-0.019643 0.00119,-0.00478 0.00183,-0.0097 0.00328,-0.014409 0.00819,-0.026318 0.00535,-0.00934 0.013017,-0.035299 0.00332,-0.011221 0.01043,-0.044071 0.012565,-0.053611 0.00241,-0.038876 0.014158,-0.076342 0.018814,-0.1149107 0.00119,-0.00987 0.0014,-0.019825 0.00209,-0.029737 0.00196,-0.055285 0.00804,-0.1106689 0.00625,-0.1659916 -0.00407,-0.025421 -0.00271,-0.051099 -5.82e-5,-0.076572 0.00124,-0.01202 0.00364,-0.023926 0.00439,-0.035987 0.00241,-0.038601 -2.62e-5,-0.055918 -0.00254,-0.095099 -0.00924,-0.057057 -0.022831,-0.1135102 -0.040683,-0.1684986 -0.00206,-0.00633 -0.016798,-0.046893 -0.020153,-0.056156 -0.00312,-0.00737 -0.00634,-0.014687 -0.00935,-0.022098 -0.00273,-0.00673 -0.00486,-0.013703 -0.00786,-0.020312 -0.00521,-0.011459 -0.014351,-0.024585 -0.01696,-0.03734 -0.00175,-0.00849 -0.00243,-0.017161 -0.00365,-0.025741 0.00159,-0.028219 -0.00492,-0.055285 -0.014383,-0.081636 -0.00695,-0.01936 -0.014512,-0.034944 -0.02849,-0.049869 -6.35e-4,8.466e-4 -0.00169,0.00151 -0.00191,0.00257 -7.937e-4,0.00389 -2.91e-4,0.012057 4.763e-4,0.016026 6.88e-5,3.704e-4 6.35e-4,0.00111 7.937e-4,7.673e-4 0.00578,-0.011803 0.010515,-0.033628 0.013097,-0.043142 0.00848,-0.034345 0.013563,-0.069499 0.016251,-0.1047578 0.00103,-0.013428 0.00217,-0.026892 0.00191,-0.040357 -2.646e-4,-0.013237 -0.00667,-0.072596 -0.008,-0.085494 -0.005,-0.034984 -0.011277,-0.069994 -0.027193,-0.1018997 -0.00631,-0.012645 -0.01628,-0.02326 -0.022365,-0.036013 -0.00455,-0.00953 -0.00766,-0.019685 -0.011496,-0.029526 -0.00554,-0.011631 -0.010197,-0.023725 -0.016616,-0.034895 -0.00417,-0.00726 -0.010054,-0.013396 -0.015018,-0.02014 -0.00498,-0.00677 -0.00998,-0.013536 -0.014825,-0.020407 -0.00951,-0.013496 -0.018148,-0.027627 -0.02741,-0.0413 -0.01224,-0.016894 -0.018045,-0.026635 -0.033508,-0.040974 -0.025506,-0.023651 -0.060303,-0.046122 -0.090883,-0.062401 -0.013346,-0.00151 -0.020913,-0.010306 -0.03123,-0.018481 -0.010912,-0.00865 -0.016738,-0.01256 -0.023344,-0.024744 -0.00434,-0.00394 -0.00867,-0.00788 -0.013012,-0.011816 -0.013709,-0.01715 -0.256172,0.1768336 -0.2424552,0.1939783 v 0 c 0.00524,0.0053 0.010478,0.010602 0.015719,0.015902 0.029336,0.022677 0.017682,0.014592 0.043923,0.032005 0.00418,0.00278 0.00829,0.00567 0.012586,0.00826 0.00254,0.00153 0.00551,0.00228 0.00787,0.00406 0.00898,0.00674 0.021601,0.019873 0.02931,0.027534 0.0041,0.0033 0.00874,0.006 0.012404,0.00978 0.019238,0.019836 0.037009,0.041386 0.061148,0.055747 0.024911,0.020971 0.013954,0.013369 0.038073,0.028397 0.00448,0.00279 0.00841,0.00683 0.013483,0.00828 0.00874,0.00249 -0.00894,-0.033204 -0.00367,-0.024773 -0.00132,-0.00295 -7.408e-4,-0.00911 -0.00395,-0.00886 -0.00376,2.91e-4 -0.00466,0.00607 -0.00592,0.00963 -0.00257,0.00726 -0.00415,0.014862 -0.00545,0.022453 -0.00556,0.032368 -0.00262,0.064831 9.525e-4,0.097248 0.00177,0.011599 0.00374,0.023167 0.0053,0.034797 0.00151,0.01138 0.00212,0.022879 0.00391,0.034216 0.00597,0.037607 0.00632,0.030024 0.015198,0.063506 0.00982,0.037002 0.00106,0.011531 0.011803,0.040341 0.00185,0.00185 0.00494,0.00301 0.00555,0.00556 0.00159,0.00655 -0.0037,0.036724 -0.00389,0.039147 -0.00241,0.030801 -9.525e-4,0.061945 0.00544,0.092195 0.00201,0.011017 0.00474,0.029021 0.00873,0.039961 0.00185,0.00505 0.011213,0.023357 0.015028,0.02863 0.00478,0.00661 0.012256,0.011036 0.015727,0.018746 4.498e-4,-1.249e-4 0.00138,-8.467e-4 0.00138,-3.705e-4 9.04e-5,0.012869 -0.00204,0.017907 -0.00398,0.030404 -0.00428,0.027709 -0.00502,0.05546 -0.00441,0.083491 0.00138,0.013319 0.00233,0.026689 0.00411,0.03996 0.00486,0.036221 0.00647,0.037182 0.014306,0.071675 0.00198,0.00871 0.015013,0.068882 0.016857,0.076147 0.00278,0.010943 0.00632,0.021683 0.00947,0.032522 0.00953,0.025149 0.020346,0.051105 0.024662,0.077856 0.00391,0.024204 0.0023,0.049298 -0.00156,0.073336 -5.821e-4,0.00898 -0.00159,0.017949 -0.00175,0.026952 -1.845e-4,0.0095 4.498e-4,0.018994 6.879e-4,0.028492 7.673e-4,0.031266 0.00169,0.062429 0.00376,0.093611 -0.00111,0.011337 -0.00127,0.022762 -0.00268,0.034068 -0.00383,0.030953 -0.01433,0.061226 -0.013825,0.092689 6.78e-5,0.00451 6.086e-4,0.00903 2.032e-4,0.013523 -0.00111,0.012372 -0.00453,0.024437 -0.00613,0.036755 -7.408e-4,0.0057 -6.35e-4,0.011512 -0.00164,0.017174 -0.00169,0.00956 -0.00585,0.018587 -0.0067,0.028346 -0.015306,0.035325 -0.034856,0.068452 -0.05075,0.1035122 -0.00257,0.00725 -0.00511,0.014504 -0.00767,0.021759 -0.00267,0.00633 -0.00563,0.012557 -0.00801,0.019005 -0.00848,0.022971 -0.013153,0.047037 -0.017613,0.071024 -0.00942,0.017497 0.2380385,0.1507395 0.2474601,0.1332415 z" />
      <path
         style="fill:#142b5b;fill-opacity:1;stroke:#142b5b;stroke-width:0.264583;stroke-opacity:1"
         id="path1027"
         d="m 8.2254227,5.6221132 c 0.026355,-0.016108 0.045658,-0.039933 0.065221,-0.063258 0.013801,-0.016454 0.028353,-0.033073 0.03895,-0.05192 0.00728,-0.012938 0.012782,-0.026797 0.019172,-0.040195 0.015179,-0.046015 0.025622,-0.094053 0.029949,-0.1423948 0.0018,-0.019997 0.0022,-0.040095 0.00346,-0.060131 -7.908e-4,-0.053978 -0.016298,-0.105866 -0.02857,-0.1579747 -0.012007,-0.053966 -0.035765,-0.1037939 -0.060636,-0.1528252 -0.00571,-0.00913 -0.01193,-0.017968 -0.017129,-0.027399 -0.00414,-0.0075 -0.00669,-0.015804 -0.010827,-0.023302 -0.00404,-0.00731 -0.00916,-0.013975 -0.013639,-0.021026 -0.00498,-0.00784 -0.00958,-0.015928 -0.014751,-0.023643 -0.00904,-0.013483 -0.018444,-0.02462 -0.028611,-0.037297 -0.00249,-0.00289 -0.022254,-0.026783 -0.028269,-0.031366 -0.00138,-0.00106 -0.00371,1.802e-4 -0.00512,-8.202e-4 -0.00824,-0.00592 -0.015087,-0.020521 -0.017746,-0.030055 -0.00725,-0.019066 -0.015923,-0.037498 -0.024252,-0.056092 -0.00283,-0.00632 -0.00513,-0.012877 -0.00825,-0.019055 -0.00201,-0.004 -0.023908,-0.040498 -0.024212,-0.041007 -0.019346,-0.02865 -0.039088,-0.05733 -0.062597,-0.08277 -0.016245,-0.025186 -0.03154,-0.051038 -0.04104,-0.079551 -0.00159,-0.00558 -0.00268,-0.011327 -0.00476,-0.016743 -0.01148,-0.029863 -0.033932,-0.069939 -0.055278,-0.093389 -0.00352,-0.00387 -0.00789,-0.00687 -0.011837,-0.010298 -0.00514,-0.00579 -0.00982,-0.012033 -0.015428,-0.01737 -0.035917,-0.034145 0.013049,0.019151 -0.023588,-0.01977 -0.011875,-0.012613 -0.020669,-0.027781 -0.02905,-0.04279 -0.00364,-0.00675 -0.00672,-0.01383 -0.010917,-0.020241 -0.016981,-0.025919 -0.039177,-0.048401 -0.060416,-0.070755 -0.030225,-0.031811 -0.012877,-0.012761 -0.043001,-0.047012 -0.031508,-0.037446 -0.069252,-0.069589 -0.099846,-0.107832 -0.00799,-0.00999 -0.014854,-0.020828 -0.022281,-0.031241 -0.00832,-0.010038 -0.016637,-0.020077 -0.024955,-0.030114 -0.020016,-0.018132 -0.036298,-0.040121 -0.05634,-0.058221 -0.00827,-0.00747 -0.048112,-0.035911 -0.05678,-0.041263 -0.016954,-0.010467 -0.035073,-0.01892 -0.052466,-0.028638 -0.00714,-0.00406 -0.014769,-0.00736 -0.02141,-0.012187 -0.00512,-0.00373 -0.00891,-0.009 -0.013578,-0.013274 -0.025186,-0.023053 -0.051074,-0.045393 -0.077868,-0.066542 -0.037527,-0.023953 -0.072637,-0.051515 -0.1102492,-0.075314 -0.020844,-0.013189 -0.031396,-0.018394 -0.053228,-0.030189 -0.00739,-0.00318 -0.014586,-0.00686 -0.022175,-0.00952 -0.0055,-0.00193 -0.011441,-0.00235 -0.016954,-0.00423 -0.014893,-0.00507 -0.026477,-0.014282 -0.040208,-0.022085 -0.00473,-0.00269 -0.00972,-0.00489 -0.014581,-0.00734 -0.00508,-0.00294 -0.010165,-0.00589 -0.015248,-0.00883 -0.00167,-0.00148 -0.0039,-0.00249 -0.00497,-0.00444 -4.233e-4,-7.937e-4 0.00172,-0.00164 0.00124,-0.00238 -0.01197,-0.018717 -0.049858,-0.040616 -0.068962,-0.052488 -0.027837,-0.020881 -0.060032,-0.034393 -0.091703,-0.048223 -0.0058,-0.00254 -0.011822,-0.00462 -0.01741,-0.0076 -0.0071,-0.00379 -0.013695,-0.00844 -0.020542,-0.012655 -0.01002,-0.00718 -0.030992,-0.022558 -0.041283,-0.028484 -0.00758,-0.00436 -0.01574,-0.00762 -0.02354,-0.011573 -0.00644,-0.00326 -0.012549,-0.00721 -0.019182,-0.010067 -0.035787,-0.015401 0.0077,0.0078 -0.024252,-0.01003 -0.034106,-0.018039 -0.062156,-0.045324 -0.090876,-0.070667 -0.0161,-0.01383 -0.031895,-0.02804 -0.050067,-0.039191 -0.018947,-0.011626 1.775e-4,0.0022 -0.016148,-0.00514 -0.00198,-8.996e-4 -0.00336,-0.00273 -0.00504,-0.0041 -0.015766,-0.019066 -0.033193,-0.036772 -0.051687,-0.053197 -0.00398,-0.00354 -0.0086,-0.00639 -0.012208,-0.010321 -0.0029,-0.00316 -0.00473,-0.00714 -0.0071,-0.01071 -0.00585,-0.00617 -0.011695,-0.012335 -0.017539,-0.018502 -0.014491,-0.013806 -0.032523,-0.022037 -0.049675,-0.03176 -0.00351,-0.00198 -0.00731,-0.00357 -0.010409,-0.00614 -0.00609,-0.00505 -0.011277,-0.011086 -0.01697,-0.016574 -0.0082,-0.0079 -0.016473,-0.015732 -0.02471,-0.023598 -0.030423,-0.027197 -0.064111,-0.04904 -0.099826,-0.06846 -0.010615,-0.00577 -0.020984,-0.012036 -0.031891,-0.017235 -0.00978,-0.00466 -0.02005,-0.0082 -0.030077,-0.012303 -0.025643,-0.00698 -0.051509,-0.013782 -0.077694,-0.018492 -0.00619,-0.00111 -0.012562,-0.00116 -0.018693,-0.00257 -0.00683,-0.00156 -0.013364,-0.00424 -0.020045,-0.00636 -0.00714,-0.00164 -0.014282,-0.00328 -0.021423,-0.00492 -0.00324,-9.525e-4 -0.00659,-0.00161 -0.00971,-0.00288 -0.01442,-0.00587 -0.028026,-0.014206 -0.042289,-0.02046 -0.012684,-0.00556 -0.020913,-0.00821 -0.033567,-0.012639 -0.021863,-0.00806 -0.044554,-0.01334 -0.066555,-0.020981 -0.0085,-0.00295 -0.016682,-0.0068 -0.0253,-0.00937 -0.017875,-0.00534 -0.038318,-0.00825 -0.056607,-0.011385 -0.00755,-6.615e-4 -0.015073,-0.00206 -0.022654,-0.00198 -0.044975,5.027e-4 0.020651,0.00537 -0.027779,0.00246 -0.01293,-7.673e-4 -0.025188,-0.00357 -0.037725,-0.00648 -0.019402,-0.00838 -0.040236,-0.00995 -0.060882,-0.012552 -0.00792,-0.00101 -0.015775,-0.00259 -0.023725,-0.00332 -0.00337,-3.175e-4 -0.00682,6.614e-4 -0.010165,1.608e-4 -0.00609,-8.995e-4 -0.011975,-0.00291 -0.017963,-0.00436 -0.050757,-0.016026 -0.1039063,-0.019635 -0.1567844,-0.018402 -0.2582071,-6.879e-4 -0.054943,0.00188 -0.041208,0.00138 0.00473,-1.72e-4 -0.00949,-7.673e-4 -0.014031,-0.00209 -0.00878,-0.00257 -0.016931,-0.00706 -0.025733,-0.00957 -0.025167,-0.00717 -0.037879,-0.00761 -0.063518,-0.010559 -0.038982,-7.673e-4 -0.078481,-0.00564 -0.1174644,-0.00185 -0.00805,7.673e-4 -0.015915,0.00286 -0.02391,0.00406 -0.00713,0.00108 -0.014311,0.00185 -0.021466,0.00277 -0.030094,0.00259 -0.060189,0.0052 -0.090283,0.00779 4.762e-4,3.44e-4 8.466e-4,0.00103 0.00146,0.00106 0.025014,0.00172 0.050039,0.00341 0.075098,0.00422 0.00132,4.28e-5 -0.00257,-9.525e-4 -0.0035,-0.00191 -0.016732,-0.01688 0.019,0.01174 -0.014049,-0.013158 -0.038277,-0.016542 -0.078406,-0.030162 -0.1202118,-0.033771 -0.023739,-0.00204 -0.033982,-1.688e-4 -0.056606,0.00198 -0.070017,0.00865 0.022334,-0.00225 -0.045354,0.00414 -0.011679,0.00111 -0.018243,0.00403 -0.030236,0.00265 -0.0052,-6.085e-4 -0.010099,-0.00277 -0.015184,-0.00402 -0.00672,-0.00167 -0.013475,-0.00313 -0.020212,-0.0047 -0.029157,-0.00409 -0.059828,-0.012581 -0.089435,-0.00928 -0.012753,0.00143 -0.016142,0.00302 -0.02777,0.00663 -0.00861,0.00374 -0.0094,0.00545 -0.019262,0.00404 -0.00441,-6.35e-4 -0.00846,-0.00312 -0.012904,-0.00347 -0.028924,-0.00222 -0.058017,-0.00183 -0.086927,-0.00423 -0.004,-3.439e-4 -0.043909,-0.01121 -0.044265,-0.011306 -0.010443,-0.00233 -0.020772,-0.00524 -0.031332,-0.00697 -0.018595,-0.00305 -0.048949,-0.00536 -0.06783,-0.00448 -0.00987,4.498e-4 -0.038711,3.439e-4 -0.029415,0.0037 0.039498,0.01425 0.084754,-0.0018 0.036236,0.012322 -0.00516,0.00196 -0.010028,0.00508 -0.015494,0.00588 -0.031083,0.00452 -0.062991,0.00339 -0.093698,0.010007 -0.017357,0.00374 -0.036628,0.021093 -0.052036,0.030412 -0.00292,0.00177 -0.00673,0.00119 -0.010097,0.00177 -0.00284,-0.00496 -0.00515,-0.011139 -0.011615,-0.012898 -0.015465,-0.00422 -0.04183,0.00172 -0.055928,0.00864 -0.00666,0.00327 -0.012547,0.00793 -0.01882,0.011896 -0.00338,0.00206 -0.00637,0.00496 -0.010139,0.00616 -8.995e-4,2.911e-4 -4.497e-4,-0.00217 -0.00135,-0.00251 -0.00316,-0.00124 -0.00664,-0.00148 -0.010009,-0.00196 -0.00629,-8.731e-4 -0.012629,-0.00143 -0.01895,-0.00209 -0.035996,-0.00379 -0.018836,-0.0029 -0.058087,-0.00188 -0.033515,0.00262 -0.066309,0.010075 -0.098383,0.019894 -0.0098,0.003 -0.019762,0.00569 -0.02916,0.00978 -0.038688,0.020526 -0.020029,0.011748 -0.055697,0.026926 -0.02232,0.00933 -0.038725,0.026944 -0.057444,0.041457 -0.00347,0.00269 -0.00676,0.00578 -0.010766,0.00756 -8.202e-4,3.704e-4 6.879e-4,-0.00259 -2.125e-4,-0.00267 -0.00201,-1.567e-4 -0.00373,0.00148 -0.00559,0.00222 -0.017317,0.00614 -0.026228,0.02441 -0.044348,0.028463 -0.00146,3.175e-4 -0.00276,-0.00119 -0.00419,-0.00164 -0.00225,-7.143e-4 -0.00447,-0.00185 -0.00682,-0.00183 -0.00406,5.58e-5 -0.00801,0.00138 -0.012015,0.00206 -0.00238,-0.00183 -0.00425,-0.0047 -0.00715,-0.00551 -0.01161,-0.00325 -0.032794,0.00135 -0.042351,0.00292 -0.025704,0.00423 -0.049963,0.011319 -0.074849,0.018804 -0.00843,0.00349 -0.016952,0.00676 -0.025286,0.010464 -0.00771,0.00343 -0.015491,0.00678 -0.022836,0.010933 -0.015695,0.00887 -0.011639,0.00822 -0.022019,0.016404 -0.00734,0.00579 -0.010004,0.00694 -0.018574,0.012057 -0.00574,0.00402 -0.01103,0.00878 -0.017219,0.012073 -8.202e-4,4.233e-4 6.085e-4,-0.00281 -3.175e-4,-0.00275 -0.00491,3.439e-4 -0.00946,0.00281 -0.014285,0.00377 -0.00454,8.996e-4 -0.00932,5.027e-4 -0.013766,0.0018 -0.00964,0.00282 -0.019973,0.00862 -0.028974,0.013319 -0.025035,0.016208 -0.045737,0.038226 -0.059765,0.064632 -7.937e-4,0.00148 -5.027e-4,0.00339 -0.00116,0.00495 -0.00426,0.00996 -0.00905,0.01968 -0.013581,0.029521 -0.00684,0.017867 0.2458585,0.114549 0.252695,0.096681 v 0 c -0.0038,0.00827 -0.0086,0.016147 -0.011393,0.02481 -3.969e-4,0.00119 0.00246,-5.556e-4 0.00368,-8.202e-4 -0.00138,0.00341 -0.00276,0.00682 -0.00414,0.010237 -0.00246,0.00456 -0.00676,0.00815 -0.0084,0.013054 -0.00132,0.00393 0.019127,0.00169 0.012427,4.234e-4 0.00854,-0.00343 0.016296,-0.00588 0.023881,-0.011046 0.00985,-0.0067 0.019248,-0.01886 0.031008,-0.022495 0.00214,-6.614e-4 -0.00265,0.00365 -0.00396,0.00548 0.011808,0.00146 0.022722,-0.00119 0.034533,-0.00217 0.00522,-4.233e-4 0.010491,-8.15e-5 0.015711,-5.292e-4 0.011099,-9.525e-4 0.021997,-0.00373 0.033145,-0.00431 0.048236,-0.010263 0.096258,-0.023619 0.1396301,-0.04772 0.019283,-0.010044 0.015415,-0.00736 0.034859,-0.020577 0.00566,-0.00384 0.011287,-0.00774 0.016719,-0.011893 0.00201,-0.00153 0.00325,-0.00421 0.0056,-0.00519 0.00185,-7.672e-4 0.00695,0.00469 0.0013,0.0059 0.00528,-0.00175 0.010753,-0.00302 0.015843,-0.00526 0.00981,-0.00433 0.023831,-0.013764 0.035538,-0.016674 0.015015,-0.00374 0.00605,0.00135 0.021751,3.44e-4 0.00599,-3.969e-4 0.011824,-0.00212 0.017738,-0.00316 0.043289,-0.011972 -8.995e-4,-0.00196 0.036573,-0.00488 0.00874,-6.879e-4 0.017346,-0.00259 0.026001,-0.00399 0.027132,-0.0044 0.054254,-0.00927 0.080626,-0.017177 0.00795,-0.00276 0.016042,-0.00513 0.023842,-0.00829 0.00703,-0.00284 0.013679,-0.00653 0.020577,-0.00967 0.016312,-0.00743 0.037758,-0.016362 0.055151,-0.019989 0.00412,-8.466e-4 0.00842,-2.116e-4 0.012623,-3.175e-4 0.00308,0.00132 0.0059,0.00379 0.00925,0.00398 0.00671,3.704e-4 0.013425,-0.00108 0.020021,-0.00235 0.031589,-0.0061 0.060448,-0.023305 0.084791,-0.04367 0.00274,-0.00198 0.00542,-0.00404 0.00822,-0.00592 0.00289,-0.00193 0.00653,-0.00816 0.00884,-0.00556 0.00228,0.00257 -0.00484,0.00491 -0.00764,0.00691 -0.00622,0.00443 -0.011856,0.010697 -0.01932,0.012308 -0.02477,0.00535 -0.050874,0.00257 -0.075584,0.00819 -0.0047,0.00106 0.00875,0.00402 0.013131,0.00604 0.053177,0.017851 0.00666,0.00402 0.1253754,0.012438 0.010687,7.673e-4 0.021233,0.00316 0.031938,0.00357 0.032092,0.00122 0.064462,-0.00318 0.095064,-0.012729 0.00723,-0.00243 0.014462,-0.00485 0.021693,-0.00727 0.00505,-0.00169 0.020346,-0.004 0.015134,-0.00507 -0.020188,-0.00412 -0.041234,-0.00167 -0.061652,-0.00443 -0.00193,-2.595e-4 0.00295,-0.00273 0.00482,-0.00325 0.00311,-8.731e-4 0.011311,0.00606 0.011322,0.00607 0.016137,0.00744 0.031998,0.012528 0.050077,0.012978 0.00508,1.265e-4 0.01007,-0.00138 0.015137,-0.00172 0.00721,-5.027e-4 0.022945,-2.91e-4 0.029969,-2.645e-4 0.00805,3.175e-4 0.029659,9.26e-4 0.036951,0.00228 0.00552,0.00103 0.010718,0.00336 0.016057,0.0051 0.021865,0.00715 0.04386,0.013607 0.065864,0.020338 0.0254,0.00573 0.036155,0.00959 0.062308,0.00986 0.033212,3.439e-4 0.065187,-0.011589 0.098431,-0.011112 0.00788,-5.027e-4 0.015782,-8.467e-4 0.023656,-0.00151 0.00912,-7.673e-4 0.018172,-0.00315 0.027312,-0.00273 0.027897,0.00127 0.055758,0.00326 0.083635,0.00493 0.039493,0.00235 0.012171,0.00108 -0.058127,0.00738 0.00302,0.00164 0.016727,0.00907 0.016825,0.00911 0.0061,0.00233 0.012517,0.00374 0.018833,0.00539 0.030355,0.00795 0.061082,0.014721 0.092115,0.019412 0.035228,0.00235 0.035483,0.00399 0.069599,2.371e-4 0.010687,-0.00116 0.02114,-0.0043 0.031874,-0.00495 0.00999,-6.085e-4 0.019984,0.00103 0.029987,0.00122 0.033398,6.086e-4 0.066835,-4.233e-4 0.1002038,0.00111 0.020574,9.26e-4 -0.041186,4.233e-4 -0.06178,6.35e-4 0.019066,0.00196 0.038103,0.00344 0.0572,0.00502 0.024112,0.00201 0.048342,0.00551 0.072533,0.00201 0.031242,0.00164 0.015007,-1.524e-4 0.048642,0.00591 0.00416,3.969e-4 0.00829,-0.00119 0.012465,-0.00116 0.015693,1.233e-4 0.031475,0.00434 0.04728,0.00222 0.00733,0.00108 0.014626,0.00243 0.021992,0.00326 0.00834,9.26e-4 0.016912,-2.46e-5 0.025112,0.00175 0.016465,0.00357 0.011314,0.00536 0.030097,0.010602 0.00466,0.0013 0.00957,0.00146 0.014359,0.00217 0.019423,0.00119 0.00103,-3.704e-4 0.024741,0.00335 0.00599,9.26e-4 0.012105,0.00111 0.018031,0.00238 0.019854,0.00425 0.037846,0.014224 0.05735,0.0196 0.00938,0.00324 0.018584,0.00705 0.028139,0.00973 0.029605,0.00831 0.061033,0.00662 0.090751,0.013912 0.00969,0.00452 0.00482,0.00238 0.016192,0.011869 0.017783,0.014851 0.036766,0.028329 0.056406,0.040588 0.049822,0.023699 0.010268,0.00647 0.060227,0.024172 0.030833,0.010922 0.062674,0.026839 0.096258,0.023847 0.00156,-0.00193 0.00246,-0.00469 0.00468,-0.0058 0.00588,-0.00292 0.010282,0.00842 0.014086,0.013777 0.011155,0.015687 0.020574,0.032643 0.035289,0.045492 0.01239,0.00962 0.033751,0.026231 0.045062,0.034928 0.00812,0.00624 0.025347,0.020145 0.035323,0.024559 0.00259,0.00114 0.00797,-3.44e-4 0.010845,-9.79e-4 0.00474,0.00576 0.00968,0.011372 0.014235,0.017288 0.00477,0.0062 0.00873,0.013012 0.013716,0.019032 0.01796,0.021659 0.041121,0.036812 0.061984,0.055378 0.014531,0.00968 0.029675,0.019177 0.043173,0.030301 0.016274,0.013412 0.029587,0.029936 0.044362,0.044869 0.00465,0.00402 0.045381,0.039471 0.050157,0.042843 0.008,0.00565 0.016957,0.00978 0.025514,0.014526 0.021675,0.012028 0.044139,0.021339 0.067729,0.029017 0.00537,0.0023 0.011025,0.00404 0.016097,0.00694 0.00616,0.00353 0.011607,0.00818 0.01742,0.01225 0.024958,0.017502 0.049376,0.036708 0.077788,0.048294 0.019032,0.011364 0.026289,0.016394 0.046325,0.025633 0.00711,0.00328 0.041802,0.016761 0.047519,0.019143 0.0099,0.00412 0.019436,0.00914 0.029522,0.012779 0.00566,0.00204 0.011695,0.00281 0.017542,0.00422 0.00379,-0.00539 0.00401,-0.010634 -0.00897,-0.012414 -0.00259,-3.44e-4 0.00243,0.00466 0.0035,0.00705 0.010308,0.022894 0.00127,0.00673 0.016991,0.031276 0.0048,0.00644 0.00927,0.013137 0.014399,0.019317 0.034601,0.041705 0.079783,0.080856 0.1246368,0.1110049 0.012332,0.00829 0.025511,0.015245 0.038265,0.022868 0.029075,0.013372 0.047671,0.023064 0.078157,0.032658 0.0099,0.00312 0.020225,0.00471 0.03031,0.00718 0.013369,0.00327 0.026159,0.00881 0.040241,0.00616 0.00106,-1.979e-4 -0.00106,-0.00185 -0.00161,-0.00279 -0.010816,-0.00201 -0.00584,0.010967 -0.00354,0.016396 0.013666,0.032321 0.036509,0.058356 0.054062,0.088507 0.044863,0.056813 0.0137,0.020193 0.064525,0.072982 0.038505,0.039993 0.074816,0.082476 0.1195303,0.115933 0.027113,0.022569 0.053543,0.047157 0.082391,0.067539 0.019161,0.013536 0.040633,0.024037 0.060633,0.036212 0.00491,0.00292 0.0095,0.00646 0.014727,0.00877 0.00132,5.821e-4 0.00317,-0.00116 0.00434,-3.175e-4 0.012404,0.00908 0.010184,0.027376 0.019304,0.03869 0.00347,0.0074 0.00646,0.015049 0.010419,0.022199 0.010149,0.018325 0.0095,0.013017 0.021873,0.028146 0.012922,0.015806 0.023873,0.03327 0.037495,0.04854 0.03901,0.048153 -0.00867,-0.011311 0.018762,0.024402 0.00183,0.00238 0.00425,0.00429 0.00583,0.00684 0.00561,0.00905 0.00783,0.020114 0.012033,0.029775 0.0013,0.00567 0.00214,0.011454 0.00386,0.017005 0.0118,0.038115 0.033542,0.072982 0.056363,0.1053089 0.0162,0.02141 0.00795,0.00969 0.024397,0.035421 0.012502,0.016986 0.028662,0.030538 0.042285,0.046493 0.00392,0.00636 0.00913,0.012115 0.011629,0.019153 0.00806,0.022675 0.01433,0.045975 0.024204,0.068006 0.00791,0.018928 0.011345,0.028493 0.022021,0.047301 0.00453,0.00798 0.010001,0.015396 0.014891,0.023167 0.00533,0.00848 0.00988,0.017476 0.015782,0.025569 0.00909,0.012472 0.020831,0.022847 0.029573,0.035615 0.00301,0.00362 0.00642,0.00696 0.00903,0.010877 0.00277,0.00416 0.013981,0.02669 0.015449,0.030364 0.0033,0.00826 0.00512,0.017071 0.00868,0.025215 0.00616,0.014089 0.011404,0.020431 0.019725,0.032044 0.012054,0.020984 0.00167,0.00114 0.011546,0.026597 7.673e-4,0.00198 0.00241,0.00358 0.00307,0.00561 0.00167,0.00506 -0.00396,0.00899 -0.00378,0.014444 -0.00432,0.021217 1.185e-4,0.00288 -0.00897,0.02862 -0.0095,0.026926 -0.016412,0.054829 -0.028151,0.080942 -0.00988,0.023693 -0.021418,0.046818 -0.028958,0.071425 -0.00116,0.00376 -0.00566,0.020354 -0.00361,0.026604 7.144e-4,0.0022 0.0032,0.00334 0.0048,0.005 -0.012166,0.015684 0.2096548,0.1877475 0.2218214,0.1720622 z" />
      <path
         style="fill:#142b5b;fill-opacity:1;stroke:#142b5b;stroke-width:0.264583;stroke-opacity:1"
         id="path1029"
         d="M 3.6720028,3.0767649 C 3.665928,3.0728147 3.6604696,3.067695 3.653781,3.064909 3.6134963,3.0481344 3.5397953,3.0529127 3.5112293,3.05241 3.4705423,3.0516957 3.4318263,3.062753 3.392533,3.07173 3.344658,3.087396 3.297493,3.108903 3.2577217,3.140361 c -0.019434,0.015372 -0.025434,0.023021 -0.042608,0.041115 -0.00955,0.00768 -0.016806,0.019203 -0.028517,0.024106 -0.00337,0.0014 -0.00705,0.0019 -0.010642,0.00254 -0.0035,6.35e-4 -0.00731,-7.38e-5 -0.010591,0.0013 -0.00678,0.00284 -0.0127,0.00741 -0.01905,0.011123 -0.00864,0.00404 -0.018195,0.00122 -0.027085,0.00312 -0.00871,0.00185 -0.01697,0.00543 -0.025593,0.00765 -0.00919,0.00235 -0.018656,0.00361 -0.027813,0.0061 -0.01039,0.00283 -0.020466,0.00672 -0.03077,0.00985 -0.010538,0.0032 -0.021169,0.00609 -0.031753,0.00914 -0.020024,0.011425 -0.042561,0.017044 -0.063297,0.026787 -0.010435,0.0049 -0.047534,0.025837 -0.057485,0.032786 -0.00902,0.0063 -0.017026,0.013944 -0.025762,0.020632 -0.00702,0.00538 -0.014333,0.010372 -0.0215,0.015555 -0.017497,0.010372 -0.037946,0.012263 -0.056839,0.018476 -0.00769,0.00254 -0.014994,0.00611 -0.02259,0.00891 -0.00806,0.00297 -0.016531,0.00489 -0.024381,0.0084 -0.0092,0.0041 -0.017724,0.00956 -0.026585,0.014348 -0.022572,0.013777 -0.045598,0.027299 -0.06543,0.044988 -0.011451,0.010213 -0.017426,0.017431 -0.028068,0.029075 -0.030869,0.035882 -0.048322,0.075506 -0.055804,0.1214855 -0.00248,0.0132 -7.646e-4,0.02664 -0.00132,0.039903 -3.598e-4,0.00861 -0.00296,0.017066 -0.00289,0.025678 6.39e-5,0.00758 0.00116,0.015105 0.00174,0.022659 0.010461,0.059476 0.043362,0.1050681 0.095688,0.1346607 0.00177,6.35e-4 0.00571,0.00377 0.0053,0.00193 -5.821e-4,-0.00259 -0.014054,-0.015039 -0.015153,-0.016095 -0.00143,-0.00138 0.00287,0.00274 0.00427,0.00415 0.00631,0.00631 0.012004,0.013295 0.018865,0.019008 0.012017,0.010004 0.025085,0.01868 0.037628,0.028018 0.064451,0.028499 0.073324,0.021145 0.1578462,0.019587 0.025374,-4.763e-4 0.048601,-0.00808 0.072662,-0.015327 0.031305,-0.011157 0.058404,-0.030459 0.08647,-0.047602 0.00466,-0.00325 0.00487,-0.00317 5.61e-5,-6.614e-4 C 3.034128,3.8044058 2.9019127,3.5582495 2.8845065,3.5675983 v 0 c -0.019574,0.00678 -0.010512,0.00391 -0.027113,0.00882 -0.00606,0.00103 -0.012298,0.0013 -0.018206,0.003 -0.014362,0.00415 -0.02734,0.012287 -0.042773,0.00979 -0.00958,5.027e-4 -0.00469,5.027e-4 -0.014653,-5.32e-5 -0.00386,1.833e-4 -0.01538,0.00116 -0.011517,0.00132 0.022693,9.525e-4 0.04542,6.879e-4 0.068129,0.00103 2.04e-5,0.0023 -8.466e-4,0.0048 6.14e-5,0.00693 0.00143,0.00341 0.00441,0.00593 0.00661,0.0089 0.0057,0.00702 0.011692,0.013801 0.017087,0.021053 0.00212,0.00283 0.008,0.00678 0.00536,0.00912 -0.00259,0.0023 -0.00479,-0.00501 -0.00726,-0.00744 -0.010253,-0.010073 -0.02652,-0.026194 -0.03828,-0.035225 -0.00275,-0.00212 -0.00605,-0.00342 -0.00907,-0.00513 -0.00522,4.233e-4 -0.00249,-4.498e-4 0.00296,0.00708 0.00989,0.013666 0.019608,0.027256 0.022162,0.044359 4.233e-4,0.00281 2.646e-4,0.00568 3.969e-4,0.00851 -0.00382,0.00854 -3.969e-4,-0.00577 -0.00539,-0.00531 -9.79e-4,8.95e-5 0.00505,0.00482 0.00259,-0.00153 5.556e-4,-0.00222 0.00361,-0.014018 0.00288,-0.014878 -0.00138,-0.00161 -0.00262,0.00826 -0.00368,0.010052 -0.00873,0.014891 -0.016515,0.027113 -0.0254,0.041217 -5.821e-4,0.00233 -0.0029,0.00487 -0.00177,0.007 0.00103,0.00196 0.00419,0.0019 0.00641,0.00183 0.0046,-1.521e-4 0.00907,-0.00156 0.013576,-0.00249 0.01918,-0.00396 0.037697,-0.01007 0.056612,-0.015076 0.031279,-0.00856 0.010221,-0.0019 0.045742,-0.016198 0.00881,-0.00355 0.017883,-0.00643 0.026531,-0.010343 0.028805,-0.013023 0.054999,-0.030334 0.081772,-0.046946 0.039596,-0.01638 -0.00185,-7.408e-4 0.037075,-0.011142 0.00301,-7.937e-4 0.05165,-0.016989 0.053056,-0.017534 0.010504,-0.00407 0.020585,-0.00917 0.030989,-0.013496 0.0095,-0.00395 0.019145,-0.00755 0.028717,-0.011319 0.018711,-0.00974 0.037769,-0.018841 0.05615,-0.029195 0.00832,-0.00469 0.016232,-0.010083 0.024469,-0.014928 0.022455,-0.013208 0.04607,-0.024543 0.067099,-0.040088 0.019458,-0.00941 0.031703,-0.020632 0.048687,-0.033108 0.01089,-0.008 0.017568,-0.011184 0.029557,-0.017579 0.00493,-0.00262 0.00988,-0.0052 0.014827,-0.00781 0.018711,0.00209 0.030611,-0.00406 0.048583,-0.00984 0.018254,-0.00587 0.036719,-0.010779 0.055676,-0.013848 0.03146,-0.00624 0.01016,-0.00331 0.038242,-0.0045 0.00746,-3.175e-4 0.029728,-8.65e-5 0.022368,-0.00138 -0.018669,-0.00324 -0.038556,0.00103 -0.056656,-0.00458 -0.01415,-0.00438 0.059149,-0.00928 0.041645,-0.015502 0.019405,0.00659 0.1126228,-0.2678142 0.093219,-0.2744058 z" />
    </g>
    <ellipse
       style="display:inline;fill:#ffffff;fill-opacity:1;stroke:#ffffff;stroke-width:0.31169;stroke-opacity:1"
       id="path448-0"
       cx="40.238934"
       cy="6.5481491"
       rx="3.8351724"
       ry="3.889353" />
    <text
       xml:space="preserve"
       style="font-size:8.01989px;font-family:'PT Sans';-inkscape-font-specification:'PT Sans';fill:#142b5b;fill-opacity:0.299505;stroke:#142b5b;stroke-width:0;stroke-dasharray:none;stroke-opacity:0.30198"
       x="42.684654"
       y="9.1015205"
       id="text2177"
       transform="scale(0.92558208,1.0804012)"><tspan
         id="tspan2175"
         style="font-style:normal;font-variant:normal;font-weight:normal;font-stretch:normal;font-family:'PT Sans';-inkscape-font-specification:'PT Sans';fill:#142b5b;fill-opacity:0.299505;stroke:#142b5b;stroke-width:0;stroke-dasharray:none;stroke-opacity:0.30198"
         x="42.684654"
         y="9.1015205"
         sodipodi:role="line">i</tspan></text>
    <text
       xml:space="preserve"
       style="font-size:7.79532px;font-family:'PT Sans';-inkscape-font-specification:'PT Sans';display:inline;fill:#142b5b;fill-opacity:1;stroke:#142b5b;stroke-width:0.449731;stroke-opacity:1"
       x="41.995899"
       y="8.5562544"
       id="text555"
       transform="scale(0.92558208,1.0804012)"><tspan
         id="tspan553"
         style="font-style:normal;font-variant:normal;font-weight:normal;font-stretch:normal;font-family:'PT Sans';-inkscape-font-specification:'PT Sans';fill:#142b5b;fill-opacity:1;stroke:#142b5b;stroke-width:0.449731;stroke-opacity:1"
         x="41.995899"
         y="8.5562544"
         sodipodi:role="line">i</tspan></text>
    <text
       xml:space="preserve"
       style="font-size:4.5861px;font-family:'PT Sans';-inkscape-font-specification:'PT Sans';fill:#ff0000;stroke:#ffffff;stroke-width:0"
       x="108.05037"
       y="-35.277985"
       id="text999"><tspan
         sodipodi:role="line"
         id="tspan997"
         style="stroke-width:0"
         x="108.05037"
         y="-35.277985" /></text>
  </g>
</svg>
